ply
format ascii 1.0
comment Created by Blender 2.90.0 - www.blender.org
element vertex 700
property float x
property float y
property float z
property float s
property float t
element face 352
property list uchar uint vertex_indices
end_header
-0.500050 0.498648 0.500034 0.000000 0.999773
-0.400036 0.498648 0.500035 0.099999 0.999774
-0.400020 0.498649 -0.500100 0.100015 0.000002
0.500085 -0.429713 0.430062 0.000001 0.000000
0.400073 -0.429713 0.430060 0.100000 0.000000
0.400073 0.428856 0.430060 0.100000 0.928309
0.400073 -0.429713 0.430060 0.930001 0.070348
0.400072 -0.499722 0.500070 1.000000 0.000258
0.400072 0.498865 0.500070 1.000000 1.000000
0.400072 -0.499722 0.500070 0.900000 0.000000
0.500085 -0.499722 0.500071 1.000000 0.000000
0.500085 0.498865 0.500071 1.000000 1.000000
0.500086 0.428856 0.430062 0.070175 0.929910
0.500085 0.498865 0.500071 0.000190 1.000000
0.500085 -0.499722 0.500071 0.000190 0.000258
-0.400020 0.498649 -0.500100 1.000000 0.999784
-0.400036 0.498648 0.500035 0.000020 0.999783
-0.400020 0.428640 -0.430090 0.930001 0.929694
0.400073 0.428856 0.430060 0.930001 0.929910
0.400072 0.498865 0.500070 0.900000 1.000000
0.500085 -0.429713 0.430062 0.070175 0.070348
0.400073 0.428856 0.430060 0.786000 0.019000
0.400072 0.498865 0.500070 0.786000 0.000000
0.500085 0.498865 0.500071 0.813300 0.000000
0.500086 0.428856 0.430062 0.813300 0.019000
0.500086 0.428856 0.430062 0.000000 0.928309
-0.500032 0.498649 -0.500102 0.000000 0.999784
-0.500033 0.428640 -0.430092 0.069986 0.929694
-0.500049 0.428640 0.430024 0.929806 0.929694
-0.400036 -0.429713 0.430046 0.900000 0.000000
-0.500049 -0.429713 0.430044 1.000000 0.000000
-0.500049 0.428856 0.430044 1.000000 0.928309
-0.500049 -0.429713 0.430044 0.929826 0.070348
-0.500050 -0.499722 0.500054 0.999812 0.000258
-0.500050 0.498865 0.500054 0.999812 1.000000
-0.500050 -0.499722 0.500054 0.000000 0.000000
-0.400037 -0.499722 0.500055 0.100000 0.000000
-0.400037 0.498865 0.500055 0.100000 1.000000
-0.400035 0.428856 0.430046 0.069998 0.929910
-0.400037 0.498865 0.500055 0.000000 1.000000
-0.400037 -0.499722 0.500055 0.000000 0.000258
-0.500050 0.498648 0.500034 0.623700 0.498600
-0.500049 0.428640 0.430024 0.623700 0.517600
-0.400035 0.428640 0.430026 0.596400 0.517600
-0.500049 0.428856 0.430044 0.929826 0.929910
-0.500050 0.498865 0.500054 0.000000 1.000000
-0.400036 -0.429713 0.430046 0.069998 0.070348
-0.500049 0.428856 0.430044 0.813300 0.019000
-0.500050 0.498865 0.500054 0.813300 0.000000
-0.400037 0.498865 0.500055 0.840600 0.000000
-0.400035 0.428856 0.430046 0.840600 0.019000
-0.400035 0.428856 0.430046 0.899999 0.928309
-0.400018 -0.499764 -0.499891 0.750600 0.247900
-0.500032 -0.499764 -0.499892 0.750600 0.220700
-0.400020 -0.429755 -0.429881 0.769700 0.247900
-0.400018 -0.499764 -0.499891 0.797300 0.522600
-0.400020 -0.429755 -0.429881 0.778200 0.503500
-0.400035 -0.429755 0.430235 0.778200 0.269700
-0.500032 -0.499764 -0.499892 0.000210 0.000216
-0.500050 -0.499764 0.500242 1.000000 0.000216
-0.500033 -0.429755 -0.429883 0.070195 0.070306
-0.500033 -0.429755 -0.429883 0.000016 0.934532
-0.500049 -0.429755 0.430233 0.000000 0.068916
-0.400020 -0.429755 -0.429881 0.100014 0.934530
-0.400038 -0.499764 0.500244 0.797300 0.250700
-0.500032 -0.499764 -0.499892 0.000018 0.000210
-0.400018 -0.499764 -0.499891 0.100017 0.000211
-0.400038 -0.499764 0.500244 0.099997 0.999983
-0.400035 -0.429755 0.430235 0.099999 0.068914
-0.500033 0.428640 -0.430092 0.623700 0.751400
-0.400020 0.428640 -0.430090 0.596400 0.751400
-0.500033 -0.429755 -0.429883 0.769700 0.220700
0.400073 0.428640 0.430040 0.176200 0.517600
0.400088 0.428640 -0.430076 0.176200 0.751400
0.500086 0.428640 0.430042 0.148900 0.517600
-0.500050 -0.499764 0.500242 0.000000 0.999981
-0.500049 -0.429755 0.430233 0.930015 0.070306
0.400088 -0.429755 -0.429867 0.900001 0.934516
0.400073 -0.429755 0.430249 0.899986 0.068900
0.500102 -0.429755 -0.429865 1.000000 0.934514
0.500086 -0.429755 0.430251 0.999984 0.068898
-0.500032 0.498649 -0.500102 0.000018 0.000000
0.500084 -0.499764 0.500261 0.000000 0.000216
0.500103 -0.499764 -0.499875 0.999791 0.000216
0.500086 -0.429755 0.430251 0.069986 0.070306
0.500103 -0.499764 -0.499875 0.731500 0.247900
0.400089 -0.499764 -0.499876 0.731500 0.220700
0.500102 -0.429755 -0.429865 0.750600 0.247900
0.400088 -0.429755 -0.429867 0.750600 0.220700
0.500102 -0.429755 -0.429865 0.929805 0.070306
0.400089 -0.499764 -0.499876 0.759100 0.794400
0.400072 -0.499764 0.500259 0.759100 0.522600
0.400088 -0.429755 -0.429867 0.778200 0.775400
0.400089 -0.499764 -0.499876 0.900001 0.000226
0.500103 -0.499764 -0.499875 1.000000 0.000227
0.500084 -0.499764 0.500261 0.999981 1.000000
0.500102 0.428640 -0.430074 0.148900 0.751400
0.400072 -0.499764 0.500259 0.899984 0.999998
0.400073 -0.429755 0.430249 0.778200 0.541600
-0.500033 -0.429971 -0.429903 0.000000 0.000000
-0.400020 -0.429971 -0.429901 0.100000 0.000000
-0.400021 0.428598 -0.429902 0.099998 0.928116
-0.400036 0.498648 0.500035 0.596400 0.498600
-0.400035 0.428640 0.430026 0.070018 0.929694
-0.400020 -0.429971 -0.429901 0.546700 0.749300
-0.500033 -0.429971 -0.429903 0.546700 0.776500
-0.400019 -0.499980 -0.499911 0.527600 0.749300
-0.500050 0.498648 0.500034 0.999792 0.999783
-0.400021 0.428598 -0.429902 0.929813 0.929652
-0.400020 -0.429971 -0.429901 0.929812 0.070090
-0.400019 0.498607 -0.499911 0.999811 0.999742
-0.500032 -0.499980 -0.499913 0.527600 0.776500
0.400088 -0.429971 -0.429887 0.899999 0.000000
0.500102 -0.429971 -0.429885 1.000000 0.000000
0.500101 0.428598 -0.429885 0.999999 0.928116
0.500102 -0.429971 -0.429885 0.205300 0.749300
0.400088 -0.429971 -0.429887 0.205300 0.776500
0.500103 -0.499980 -0.499895 0.186200 0.749300
-0.400019 -0.499980 -0.499911 0.999811 0.000000
-0.500033 0.428598 -0.429903 0.070175 0.929652
-0.500032 0.498607 -0.499913 0.000189 0.999742
-0.500032 -0.499980 -0.499913 0.000189 0.000000
-0.500033 0.428598 -0.429903 0.000000 0.928116
-0.500033 -0.429971 -0.429903 0.070175 0.070090
-0.400019 0.498607 -0.499911 0.000191 0.999742
-0.400019 -0.499980 -0.499911 0.000191 0.000000
0.400088 0.428598 -0.429887 0.070188 0.929652
0.400089 0.498607 -0.499897 0.000189 0.999742
0.400090 -0.499980 -0.499896 0.000190 0.000000
0.400088 0.428598 -0.429887 0.899999 0.928116
0.400090 -0.499980 -0.499896 0.000206 0.000000
0.400089 0.498607 -0.499897 0.000205 0.999742
0.500103 -0.499980 -0.499895 0.000207 0.000000
0.500102 -0.429971 -0.429885 0.929825 0.070090
0.500103 -0.499980 -0.499895 0.999811 0.000000
0.500103 0.498607 -0.499895 0.999811 0.999742
0.500103 0.498607 -0.499895 0.000207 0.999742
0.500101 0.428598 -0.429885 0.929825 0.929652
0.400088 -0.429971 -0.429887 0.070188 0.070090
0.400090 -0.499980 -0.499896 0.186200 0.776500
0.451324 -0.487959 -0.119603 0.951229 0.380361
0.451322 -0.487893 0.000374 0.951226 0.500294
-0.460553 -0.487635 0.000355 0.039491 0.500275
-0.461988 -0.442482 -0.119425 0.038056 0.380539
-0.461990 -0.442416 0.000219 0.038054 0.500139
0.460413 -0.442566 0.000236 0.960316 0.500156
0.451322 -0.487893 0.000374 0.975300 0.253200
0.460413 -0.442566 0.000236 0.987600 0.250700
-0.461990 -0.442416 0.000219 0.987600 0.501400
0.451324 -0.487959 -0.119603 0.901000 0.499000
-0.460551 -0.487701 -0.119620 0.901100 0.251100
0.460415 -0.442632 -0.119407 0.913400 0.501400
0.460415 -0.442632 -0.119407 0.960318 0.380557
-0.460553 -0.487635 0.000355 0.975300 0.501000
-0.460551 -0.487701 -0.119620 0.039493 0.380344
-0.461988 -0.442482 -0.119425 0.913400 0.250700
-0.460558 -0.487701 0.267156 0.361000 0.499000
-0.461995 -0.442482 0.267351 0.373300 0.498600
0.460408 -0.442633 0.267368 0.373300 0.749300
-0.460560 -0.487635 0.387131 0.039484 0.886911
-0.460558 -0.487701 0.267156 0.039486 0.766980
0.451317 -0.487959 0.267173 0.951221 0.766997
-0.460560 -0.487635 0.387131 0.984600 0.250300
0.451315 -0.487893 0.387149 0.984500 0.002500
-0.461997 -0.442416 0.386995 0.996900 0.250700
0.460408 -0.442633 0.267368 0.960311 0.767191
-0.461995 -0.442482 0.267351 0.038049 0.767174
0.460406 -0.442567 0.387011 0.960309 0.886791
0.451317 -0.487959 0.267173 0.361000 0.746800
0.460406 -0.442567 0.387011 0.996900 0.000000
-0.461997 -0.442416 0.386995 0.038047 0.886775
0.451315 -0.487893 0.387149 0.951219 0.886929
-0.460561 -0.415363 0.486214 0.967100 0.574800
-0.461998 -0.415167 0.440996 0.979400 0.574400
0.460405 -0.415167 0.441163 0.979400 0.825100
-0.460561 -0.278577 0.486148 0.039484 0.221458
-0.460561 -0.415363 0.486214 0.039484 0.084478
0.451313 -0.415363 0.486489 0.951235 0.084478
-0.460561 -0.278577 0.486148 0.917600 0.824700
0.451313 -0.278576 0.486423 0.917600 0.576900
-0.461998 -0.278713 0.440930 0.930000 0.825100
0.460405 -0.415167 0.441163 0.039676 0.015727
-0.461998 -0.415167 0.440996 0.961954 0.015727
0.460405 -0.278713 0.441097 0.039676 0.163265
0.451313 -0.415363 0.486489 0.967100 0.822700
0.460405 -0.278713 0.441097 0.930000 0.574400
-0.461998 -0.278713 0.440930 0.961954 0.163265
0.451313 -0.278576 0.486423 0.951235 0.221459
-0.471374 -0.266762 -0.475332 0.000000 0.749700
-0.426156 -0.266566 -0.476769 0.012400 0.749300
-0.426323 -0.266565 0.445634 0.012400 1.000000
-0.471308 -0.129976 -0.475332 0.648700 0.985500
-0.471582 -0.129975 0.436541 0.648700 0.737700
-0.426090 -0.130112 -0.476769 0.661100 0.985900
-0.426156 -0.266566 -0.476769 0.976673 0.233684
-0.426090 -0.130112 -0.476769 0.976673 0.370296
-0.426256 -0.130112 0.445634 0.054413 0.370296
-0.471648 -0.266761 0.436542 0.000000 0.997500
-0.471308 -0.129976 -0.475332 0.024761 0.370432
-0.471374 -0.266762 -0.475332 0.024761 0.233488
-0.471648 -0.266761 0.436542 0.936322 0.233489
-0.471582 -0.129975 0.436541 0.936321 0.370433
-0.426323 -0.266565 0.445634 0.054413 0.233685
-0.426256 -0.130112 0.445634 0.661100 0.735200
0.500102 0.498649 -0.500084 1.000000 0.999784
0.500085 0.498649 0.500051 0.000210 0.999784
0.500102 0.428640 -0.430074 0.930014 0.929694
0.500085 0.498649 0.500051 0.148900 0.498600
0.400072 0.498649 0.500050 0.176200 0.498600
0.500086 0.428640 0.430042 0.070195 0.929694
0.400072 0.498649 0.500050 0.999980 0.999784
0.400090 0.498649 -0.500086 0.000000 0.999784
0.400073 0.428640 0.430040 0.929981 0.929694
0.400072 0.498649 0.500050 0.899984 0.999789
0.500085 0.498649 0.500051 0.999982 0.999790
0.500102 0.498649 -0.500084 0.999999 0.000018
0.400090 0.498649 -0.500086 0.900002 0.000016
0.400088 0.428640 -0.430076 0.069999 0.929694
0.446052 -0.129976 -0.486079 0.950600 0.501000
-0.465822 -0.129975 -0.486354 0.950500 0.253200
0.447489 -0.130112 -0.440861 0.962900 0.501400
0.447489 -0.266566 -0.440927 0.947394 0.176641
0.447489 -0.130112 -0.440861 0.947394 0.324149
-0.474914 -0.130112 -0.441028 0.025116 0.324149
-0.465822 -0.266762 -0.486420 0.633800 0.983500
0.446052 -0.266762 -0.486145 0.633800 0.735600
-0.474914 -0.266566 -0.441094 0.646100 0.985900
0.447489 -0.266566 -0.440927 0.646100 0.735200
-0.474914 -0.130112 -0.441028 0.962900 0.250700
-0.474914 -0.266566 -0.441094 0.025116 0.176641
0.446052 -0.129976 -0.486079 0.014018 0.370432
0.446052 -0.266762 -0.486145 0.013952 0.233488
-0.465822 -0.266762 -0.486420 0.013677 0.233488
-0.465822 -0.129975 -0.486354 0.013743 0.370433
0.471753 -0.415363 -0.463085 0.963014 0.084715
0.471686 -0.278576 -0.463085 0.963014 0.221660
0.471412 -0.278577 0.448788 0.051455 0.221659
0.426260 -0.415167 0.450225 0.950163 0.084911
0.426194 -0.278713 0.450225 0.950163 0.221523
0.426360 -0.278713 -0.472177 0.027905 0.221523
0.471686 -0.278576 -0.463085 0.942300 0.576900
0.426360 -0.278713 -0.472177 0.954700 0.574400
0.426194 -0.278713 0.450225 0.954700 0.825100
0.471753 -0.415363 -0.463085 0.913400 0.499000
0.471478 -0.415363 0.448788 0.913400 0.251100
0.426427 -0.415167 -0.472177 0.925800 0.501400
0.426427 -0.415167 -0.472177 0.027905 0.084911
0.471412 -0.278577 0.448788 0.942400 0.824700
0.471478 -0.415363 0.448788 0.051455 0.084715
0.426260 -0.415167 0.450225 0.925800 0.250700
0.471412 -0.129976 0.448788 0.484500 0.996700
0.471686 -0.129975 -0.463085 0.484500 0.748900
0.426194 -0.130112 0.450225 0.496800 0.997100
0.426260 -0.266565 0.450226 0.950164 0.233685
0.426194 -0.130112 0.450225 0.950163 0.370296
0.426360 -0.130112 -0.472177 0.027905 0.370296
0.471753 -0.266762 -0.463085 0.925800 0.499000
0.471478 -0.266761 0.448788 0.925800 0.251100
0.426427 -0.266566 -0.472177 0.938200 0.501400
0.426260 -0.266565 0.450226 0.938200 0.250700
0.426360 -0.130112 -0.472177 0.496800 0.746400
0.426427 -0.266566 -0.472177 0.027905 0.233684
0.471412 -0.129976 0.448788 0.051455 0.370432
0.471478 -0.266761 0.448788 0.051455 0.233489
0.471753 -0.266762 -0.463085 0.963014 0.233488
0.471686 -0.129975 -0.463085 0.963014 0.370433
-0.465822 -0.415363 -0.486420 0.013677 0.084715
-0.465822 -0.278576 -0.486354 0.013743 0.221660
0.446052 -0.278577 -0.486079 0.014018 0.221659
0.447489 -0.415167 -0.440927 0.947394 0.016003
0.447489 -0.278713 -0.440860 0.947394 0.163511
-0.474914 -0.278713 -0.441028 0.025116 0.163511
-0.465822 -0.278576 -0.486354 0.947400 0.002500
-0.474914 -0.278713 -0.441028 0.959800 0.000000
0.447489 -0.278713 -0.440860 0.959800 0.250700
-0.465822 -0.415363 -0.486420 0.959800 0.248200
0.446051 -0.415363 -0.486145 0.959800 0.000400
-0.474914 -0.415167 -0.441094 0.972200 0.250700
-0.474914 -0.415167 -0.441094 0.025116 0.016003
0.446052 -0.278577 -0.486079 0.947500 0.250300
0.446051 -0.415363 -0.486145 0.013952 0.084715
0.447489 -0.415167 -0.440927 0.972200 0.000000
-0.461998 -0.266565 0.440996 0.961954 0.176400
-0.461998 -0.130112 0.440930 0.961954 0.323937
0.460405 -0.130112 0.441097 0.039676 0.323937
-0.460561 -0.129976 0.486148 0.039484 0.370269
-0.460561 -0.266761 0.486214 0.039484 0.233291
0.451313 -0.266761 0.486489 0.951235 0.233291
0.460405 -0.266565 0.441163 0.039676 0.176400
0.451313 -0.129975 0.486423 0.377100 0.748900
0.460405 -0.130112 0.441097 0.389400 0.746400
-0.461998 -0.130112 0.440930 0.389400 0.997100
-0.460561 -0.129976 0.486148 0.377100 0.996700
0.451313 -0.266761 0.486489 0.935100 0.248200
-0.460561 -0.266761 0.486214 0.935100 0.000400
0.460405 -0.266565 0.441163 0.947400 0.250700
0.451313 -0.129975 0.486423 0.951235 0.370270
-0.461998 -0.266565 0.440996 0.947400 0.000000
-0.471648 -0.415363 0.436541 0.936321 0.084715
-0.471582 -0.278576 0.436541 0.936321 0.221660
-0.471308 -0.278577 -0.475332 0.024761 0.221659
-0.426156 -0.415167 -0.476769 0.976673 0.084911
-0.426090 -0.278713 -0.476769 0.976673 0.221523
-0.426256 -0.278713 0.445634 0.054413 0.221523
-0.471582 -0.278576 0.436541 0.979400 0.576900
-0.426256 -0.278713 0.445634 0.991800 0.574400
-0.426090 -0.278713 -0.476769 0.991800 0.825100
-0.471648 -0.415363 0.436541 0.025900 0.997500
-0.471374 -0.415363 -0.475332 0.025900 0.749700
-0.426323 -0.415167 0.445634 0.038300 1.000000
-0.426323 -0.415167 0.445634 0.054413 0.084911
-0.471308 -0.278577 -0.475332 0.979500 0.824700
-0.471374 -0.415363 -0.475332 0.024761 0.084715
-0.426156 -0.415167 -0.476769 0.038300 0.749300
-0.426147 0.495161 -0.494936 0.073892 0.005164
-0.426149 0.495095 -0.399963 0.073890 0.100103
0.485724 0.494836 -0.399947 0.985623 0.100119
0.487164 0.449683 -0.494723 0.699100 0.498600
0.487162 0.449617 -0.400083 0.724900 0.498600
-0.435240 0.449768 -0.400100 0.724900 0.749300
-0.426149 0.495095 -0.399963 0.073874 1.000000
-0.435240 0.449768 -0.400100 0.064784 0.951001
0.487162 0.449617 -0.400083 0.987062 0.950838
-0.426147 0.495161 -0.494936 0.005164 0.996292
0.485726 0.494902 -0.494919 0.005181 0.996032
-0.435238 0.449834 -0.494740 0.005360 0.950912
-0.435238 0.449834 -0.494740 0.699100 0.749300
0.485724 0.494836 -0.399947 0.985624 0.999720
0.485726 0.494902 -0.494919 0.985625 0.005181
0.487164 0.449683 -0.494723 0.005377 0.950761
-0.456899 0.495161 0.403722 0.043144 0.903496
-0.456901 0.495095 0.498695 0.043142 0.998435
0.454973 0.494836 0.498710 0.954877 0.998450
0.456412 0.449684 0.403934 0.517200 0.498600
0.456410 0.449618 0.498574 0.543000 0.498600
-0.465992 0.449769 0.498558 0.543000 0.749300
-0.456901 0.495095 0.498695 0.043143 0.996225
-0.465992 0.449769 0.498558 0.034053 0.950835
0.456410 0.449618 0.498574 0.956331 0.950683
-0.456899 0.495161 0.403722 0.956856 1.000000
0.454974 0.494902 0.403738 0.045106 0.999720
-0.465991 0.449835 0.403917 0.965947 0.950992
-0.465991 0.449835 0.403917 0.517200 0.749300
0.454973 0.494836 0.498710 0.954894 0.995965
0.454974 0.494902 0.403738 0.954878 0.903512
0.456412 0.449684 0.403934 0.043668 0.950829
-0.460553 -0.487701 0.009305 0.892900 0.574800
-0.461990 -0.442483 0.009500 0.905200 0.574400
0.460413 -0.442632 0.009518 0.905200 0.825100
-0.460555 -0.487635 0.129280 0.039489 0.629154
-0.460553 -0.487701 0.009305 0.039491 0.509222
0.451321 -0.487959 0.009322 0.951225 0.509239
-0.460555 -0.487635 0.129280 0.243800 0.996700
0.451319 -0.487893 0.129299 0.243800 0.748900
-0.461992 -0.442416 0.129144 0.256200 0.997100
0.460413 -0.442632 0.009518 0.960316 0.509435
-0.461990 -0.442483 0.009500 0.038054 0.509417
0.460410 -0.442566 0.129161 0.960313 0.629035
0.451321 -0.487959 0.009322 0.892900 0.822700
0.460410 -0.442566 0.129161 0.256200 0.746400
-0.461992 -0.442416 0.129144 0.038052 0.629018
0.451319 -0.487893 0.129299 0.951223 0.629173
0.451319 -0.487959 0.138248 0.951223 0.638118
0.451317 -0.487893 0.258224 0.951221 0.758051
-0.460557 -0.487635 0.258206 0.039487 0.758033
-0.461992 -0.442483 0.138425 0.038052 0.638295
-0.461995 -0.442416 0.258070 0.038049 0.757897
0.460408 -0.442567 0.258086 0.960311 0.757913
0.451317 -0.487893 0.258224 0.930000 0.576900
0.460408 -0.442567 0.258086 0.942300 0.574400
-0.461995 -0.442416 0.258070 0.942300 0.825100
0.451319 -0.487959 0.138248 0.442500 0.746800
-0.460555 -0.487701 0.138230 0.442600 0.499000
0.460410 -0.442632 0.138443 0.454900 0.749300
0.460410 -0.442632 0.138443 0.960313 0.638313
-0.460557 -0.487635 0.258206 0.930000 0.824700
-0.460555 -0.487701 0.138230 0.039489 0.638100
-0.461992 -0.442483 0.138425 0.454900 0.498600
-0.426147 -0.451719 -0.494935 0.073891 1.000000
-0.426149 -0.451785 -0.399963 0.073889 0.904421
0.485724 -0.452043 -0.399947 0.985624 0.904404
0.487164 -0.497195 -0.494723 0.987063 0.005377
0.487162 -0.497261 -0.400083 0.987061 0.099983
-0.435240 -0.497110 -0.400100 0.064800 0.099966
-0.426149 -0.451785 -0.399963 0.038300 0.751800
-0.435240 -0.497110 -0.400100 0.050700 0.749300
0.487162 -0.497261 -0.400083 0.050700 1.000000
-0.426147 -0.451719 -0.494935 0.005165 0.048317
0.485726 -0.451977 -0.494919 0.005181 0.048059
-0.435239 -0.497044 -0.494740 0.005360 0.002939
-0.435239 -0.497044 -0.494740 0.064801 0.005360
0.485724 -0.452043 -0.399947 0.038300 0.999600
0.485726 -0.451977 -0.494919 0.985626 0.999984
0.487164 -0.497195 -0.494723 0.005377 0.002788
-0.456899 -0.451719 0.403722 0.043143 0.095596
-0.456901 -0.451785 0.498695 0.043141 0.000016
0.454973 -0.452043 0.498711 0.954878 0.000000
0.456412 -0.497195 0.403934 0.956316 0.903708
0.456410 -0.497261 0.498574 0.956314 0.998314
-0.465992 -0.497110 0.498558 0.034053 0.998298
-0.456901 -0.451785 0.498695 0.043143 0.048005
-0.465992 -0.497110 0.498558 0.034053 0.002616
0.456410 -0.497261 0.498574 0.956331 0.002464
-0.456899 -0.451719 0.403722 0.125400 0.997500
0.454974 -0.451977 0.403739 0.125400 0.749700
-0.465991 -0.497044 0.403917 0.137700 1.000000
-0.465991 -0.497044 0.403917 0.034054 0.903691
0.454973 -0.452043 0.498711 0.954894 0.047746
0.454974 -0.451977 0.403739 0.954879 0.095579
0.456412 -0.497195 0.403934 0.137700 0.749300
-0.471374 -0.120124 -0.475332 0.013600 0.749700
-0.426156 -0.119928 -0.476769 0.025900 0.749300
-0.426323 -0.119927 0.445634 0.025900 1.000000
-0.471308 0.016662 -0.475332 0.401800 0.996700
-0.471582 0.016663 0.436542 0.401800 0.748900
-0.426090 0.016526 -0.476769 0.414200 0.997100
-0.426156 -0.119928 -0.476769 0.976673 0.380491
-0.426090 0.016526 -0.476769 0.976673 0.517103
-0.426256 0.016526 0.445634 0.054413 0.517103
-0.471648 -0.120123 0.436542 0.013500 0.997500
-0.471308 0.016662 -0.475332 0.024761 0.517239
-0.471374 -0.120124 -0.475332 0.024761 0.380295
-0.471648 -0.120123 0.436542 0.936322 0.380296
-0.471582 0.016663 0.436542 0.936322 0.517240
-0.426323 -0.119927 0.445634 0.054413 0.380492
-0.426256 0.016526 0.445634 0.414200 0.746400
0.446052 0.016662 -0.486079 0.954700 0.824700
-0.465822 0.016663 -0.486354 0.954700 0.576900
0.447489 0.016526 -0.440861 0.967100 0.825100
0.447489 -0.119928 -0.440927 0.947394 0.335158
0.447489 0.016526 -0.440861 0.947394 0.482665
-0.474914 0.016526 -0.441028 0.025116 0.482665
-0.465822 -0.120124 -0.486420 0.910300 0.248200
0.446051 -0.120124 -0.486145 0.910400 0.000400
-0.474914 -0.119928 -0.441094 0.922700 0.250700
0.447489 -0.119928 -0.440927 0.922700 0.000000
-0.474914 0.016526 -0.441028 0.967100 0.574400
-0.474914 -0.119928 -0.441094 0.025116 0.335158
0.446052 0.016662 -0.486079 0.014018 0.517239
0.446051 -0.120124 -0.486145 0.013952 0.380295
-0.465822 -0.120124 -0.486420 0.013677 0.380295
-0.465822 0.016663 -0.486354 0.013743 0.517240
0.471412 0.016662 0.448788 0.922700 0.250300
0.471686 0.016663 -0.463085 0.922700 0.002500
0.426194 0.016526 0.450225 0.935100 0.250700
0.426260 -0.119927 0.450226 0.950164 0.380492
0.426194 0.016526 0.450225 0.950163 0.517103
0.426361 0.016526 -0.472177 0.027905 0.517103
0.471753 -0.120124 -0.463085 0.430200 0.994700
0.471478 -0.120123 0.448788 0.430200 0.746800
0.426427 -0.119928 -0.472177 0.442500 0.997100
0.426260 -0.119927 0.450226 0.442500 0.746400
0.426361 0.016526 -0.472177 0.935100 0.000000
0.426427 -0.119928 -0.472177 0.027905 0.380492
0.471412 0.016662 0.448788 0.051455 0.517239
0.471478 -0.120123 0.448788 0.051455 0.380296
0.471753 -0.120124 -0.463085 0.963014 0.380295
0.471686 0.016663 -0.463085 0.963014 0.517240
-0.461998 -0.119927 0.440996 0.961954 0.334949
-0.461998 0.016526 0.440930 0.961954 0.482486
0.460405 0.016526 0.441097 0.039676 0.482486
-0.460561 0.016662 0.486148 0.039484 0.517115
-0.460561 -0.120123 0.486214 0.039484 0.380136
0.451313 -0.120123 0.486489 0.951235 0.380136
0.460405 -0.119927 0.441163 0.039676 0.334949
0.451313 0.016663 0.486423 0.389400 0.748900
0.460405 0.016526 0.441097 0.401800 0.746400
-0.461998 0.016526 0.440930 0.401800 0.997100
-0.460561 0.016662 0.486148 0.389500 0.996700
0.451313 -0.120123 0.486489 0.972200 0.248200
-0.460561 -0.120123 0.486214 0.972200 0.000400
0.460405 -0.119927 0.441163 0.984500 0.250700
0.451313 0.016663 0.486423 0.951235 0.517116
-0.461998 -0.119927 0.440996 0.984500 0.000000
-0.471374 0.026514 -0.475332 0.050800 0.749700
-0.426156 0.026710 -0.476769 0.063200 0.749300
-0.426323 0.026711 0.445634 0.063200 1.000000
-0.471308 0.163300 -0.475332 0.676000 0.951700
-0.471582 0.163301 0.436542 0.676000 0.703800
-0.426090 0.163164 -0.476769 0.688400 0.952100
-0.426156 0.026710 -0.476769 0.976673 0.527299
-0.426090 0.163164 -0.476769 0.976673 0.663911
-0.426256 0.163164 0.445634 0.054413 0.663911
-0.471648 0.026514 0.436541 0.050800 0.997500
-0.471308 0.163300 -0.475332 0.024761 0.664047
-0.471374 0.026514 -0.475332 0.024761 0.527103
-0.471648 0.026514 0.436541 0.936321 0.527103
-0.471582 0.163301 0.436542 0.936322 0.664048
-0.426323 0.026711 0.445634 0.054413 0.527300
-0.426256 0.163164 0.445634 0.688400 0.701300
0.446051 0.163300 -0.486079 0.938200 0.501000
-0.465822 0.163301 -0.486354 0.938200 0.253200
0.447489 0.163164 -0.440861 0.950500 0.501400
0.447489 0.026710 -0.440927 0.947394 0.493674
0.447489 0.163164 -0.440861 0.947394 0.641181
-0.474914 0.163164 -0.441028 0.025116 0.641181
-0.465822 0.026514 -0.486420 0.905200 0.822700
0.446051 0.026514 -0.486145 0.905300 0.574800
-0.474914 0.026710 -0.441094 0.917600 0.825100
0.447489 0.026710 -0.440927 0.917600 0.574400
-0.474914 0.163164 -0.441028 0.950500 0.250700
-0.474914 0.026710 -0.441094 0.974868 0.493498
0.447489 0.026710 -0.440927 0.052590 0.493498
-0.474914 0.163164 -0.441028 0.974868 0.641036
0.446051 0.163300 -0.486079 0.014018 0.664047
0.446051 0.026514 -0.486145 0.013952 0.527103
-0.465822 0.026514 -0.486420 0.013677 0.527103
-0.465822 0.163301 -0.486354 0.013743 0.664048
0.471412 0.163300 0.448788 0.962900 0.501000
0.471686 0.163301 -0.463085 0.962900 0.253200
0.426194 0.163164 0.450225 0.975300 0.501400
0.426260 0.026711 0.450226 0.950164 0.527300
0.426194 0.163164 0.450225 0.950163 0.663911
0.426361 0.163164 -0.472177 0.027905 0.663911
0.471752 0.026514 -0.463085 0.275700 0.983500
0.471478 0.026514 0.448788 0.275700 0.735600
0.426427 0.026710 -0.472177 0.288100 0.985900
0.426260 0.026711 0.450226 0.288100 0.735200
0.426361 0.163164 -0.472177 0.975300 0.250700
0.426427 0.026710 -0.472177 0.027905 0.527299
0.471412 0.163300 0.448788 0.051455 0.664047
0.471478 0.026514 0.448788 0.051455 0.527103
0.471752 0.026514 -0.463085 0.963014 0.527103
0.471686 0.163301 -0.463085 0.963014 0.664048
-0.461998 0.026711 0.440996 0.961954 0.493499
-0.461998 0.163164 0.440930 0.961954 0.641036
0.460405 0.163164 0.441097 0.039676 0.641036
-0.460561 0.163300 0.486149 0.039484 0.663960
-0.460561 0.026514 0.486215 0.039484 0.526981
0.451313 0.026515 0.486489 0.951235 0.526982
0.460405 0.026711 0.441163 0.039676 0.493499
0.451313 0.163301 0.486423 0.260800 0.737700
0.460405 0.163164 0.441097 0.273100 0.735200
-0.461998 0.163164 0.440930 0.273100 0.985900
-0.460561 0.163300 0.486149 0.260800 0.985500
0.451313 0.026515 0.486489 0.223400 0.994700
-0.460561 0.026514 0.486215 0.223500 0.746800
0.460405 0.026711 0.441163 0.235800 0.997100
0.451313 0.163301 0.486423 0.951235 0.663961
-0.461998 0.026711 0.440996 0.235800 0.746400
0.451326 -0.487959 -0.248528 0.951230 0.251483
0.451324 -0.487892 -0.128552 0.951229 0.371415
-0.460550 -0.487635 -0.128570 0.039494 0.371397
-0.461985 -0.442482 -0.248350 0.038059 0.251661
-0.461988 -0.442416 -0.128706 0.038056 0.371261
0.460415 -0.442566 -0.128690 0.960318 0.371277
0.451324 -0.487892 -0.128552 0.987600 0.253200
0.460415 -0.442566 -0.128690 1.000000 0.250700
-0.461988 -0.442416 -0.128706 1.000000 0.501400
0.451326 -0.487959 -0.248528 0.546700 0.746800
-0.460548 -0.487701 -0.248545 0.546800 0.499000
0.460417 -0.442633 -0.248333 0.559100 0.749300
0.460417 -0.442633 -0.248333 0.960320 0.251678
-0.460550 -0.487635 -0.128570 0.987700 0.501000
-0.460548 -0.487701 -0.248545 0.039496 0.251466
-0.461985 -0.442482 -0.248350 0.559100 0.498600
0.451328 -0.487959 -0.377453 0.951232 0.122604
0.451326 -0.487893 -0.257477 0.951230 0.242537
-0.460548 -0.487635 -0.257495 0.039496 0.242519
-0.461983 -0.442482 -0.377275 0.038061 0.122782
-0.461985 -0.442416 -0.257631 0.038059 0.242383
0.460417 -0.442567 -0.257615 0.960320 0.242399
0.451326 -0.487893 -0.257477 0.746700 0.724900
0.460417 -0.442567 -0.257615 0.759100 0.722500
-0.461985 -0.442416 -0.257631 0.759100 0.973200
0.451328 -0.487959 -0.377453 0.898000 0.248200
-0.460546 -0.487701 -0.377471 0.898000 0.000400
0.460420 -0.442632 -0.377258 0.910300 0.250700
0.460420 -0.442632 -0.377258 0.960323 0.122799
-0.460548 -0.487635 -0.257495 0.746800 0.972800
-0.460546 -0.487701 -0.377471 0.039498 0.122586
-0.461983 -0.442482 -0.377275 0.910300 0.000000
-0.471374 0.175166 -0.475332 0.000000 0.749700
-0.426156 0.175362 -0.476769 0.012400 0.749300
-0.426323 0.175362 0.445634 0.012400 1.000000
-0.471308 0.311952 -0.475332 0.648700 0.985500
-0.471582 0.311953 0.436541 0.648700 0.737700
-0.426090 0.311816 -0.476769 0.661100 0.985900
-0.426156 0.175362 -0.476769 0.976673 0.676123
-0.426090 0.311816 -0.476769 0.976673 0.812735
-0.426256 0.311816 0.445634 0.054413 0.812735
-0.471648 0.175167 0.436542 0.000000 0.997500
-0.471308 0.311952 -0.475332 0.024761 0.812871
-0.471374 0.175166 -0.475332 0.024761 0.675927
-0.471648 0.175167 0.436542 0.936322 0.675928
-0.471582 0.311953 0.436541 0.936321 0.812872
-0.426323 0.175362 0.445634 0.054413 0.676123
-0.426256 0.311816 0.445634 0.661100 0.735200
0.446052 0.311952 -0.486079 0.950600 0.501000
-0.465822 0.311953 -0.486354 0.950500 0.253200
0.447489 0.311816 -0.440861 0.962900 0.501400
0.447489 0.175362 -0.440927 0.947394 0.654367
0.447489 0.311816 -0.440861 0.947394 0.801875
-0.474914 0.311816 -0.441028 0.025116 0.801875
-0.465822 0.175166 -0.486420 0.633800 0.983500
0.446052 0.175166 -0.486145 0.633800 0.735600
-0.474914 0.175362 -0.441094 0.646100 0.985900
0.447489 0.175362 -0.440927 0.646100 0.735200
-0.474914 0.311816 -0.441028 0.962900 0.250700
-0.474914 0.175362 -0.441094 0.025116 0.654367
0.446052 0.311952 -0.486079 0.014018 0.812871
0.446052 0.175166 -0.486145 0.013952 0.675927
-0.465822 0.175166 -0.486420 0.013677 0.675927
-0.465822 0.311953 -0.486354 0.013743 0.812872
0.471412 0.311952 0.448788 0.484500 0.996700
0.471686 0.311953 -0.463085 0.484500 0.748900
0.426194 0.311816 0.450225 0.496800 0.997100
0.426260 0.175363 0.450226 0.950164 0.676124
0.426194 0.311816 0.450225 0.950163 0.812735
0.426361 0.311816 -0.472177 0.027905 0.812735
0.471753 0.175166 -0.463085 0.925800 0.499000
0.471478 0.175166 0.448788 0.925800 0.251100
0.426427 0.175362 -0.472177 0.938200 0.501400
0.426260 0.175363 0.450226 0.938200 0.250700
0.426361 0.311816 -0.472177 0.496800 0.746400
0.426427 0.175362 -0.472177 0.027905 0.676123
0.471412 0.311952 0.448788 0.051455 0.812871
0.471478 0.175166 0.448788 0.051455 0.675927
0.471753 0.175166 -0.463085 0.963014 0.675927
0.471686 0.311953 -0.463085 0.963014 0.812872
-0.461998 0.175362 0.440996 0.961954 0.654224
-0.461998 0.311816 0.440930 0.961954 0.801762
0.460405 0.311816 0.441097 0.039676 0.801762
-0.460561 0.311952 0.486148 0.039484 0.812822
-0.460561 0.175167 0.486214 0.039484 0.675844
0.451313 0.175166 0.486489 0.951235 0.675843
0.460405 0.175363 0.441163 0.039676 0.654225
0.451313 0.311953 0.486423 0.377100 0.748900
0.460405 0.311816 0.441097 0.389400 0.746400
-0.461998 0.311816 0.440930 0.389400 0.997100
-0.460561 0.311952 0.486148 0.377100 0.996700
0.451313 0.175166 0.486489 0.935100 0.248200
-0.460561 0.175167 0.486214 0.935100 0.000400
0.460405 0.175363 0.441163 0.947400 0.250700
0.451313 0.311953 0.486423 0.951235 0.812824
-0.461998 0.175362 0.440996 0.947400 0.000000
-0.460561 0.325372 0.486214 0.967100 0.574800
-0.461998 0.325569 0.440996 0.979400 0.574400
0.460405 0.325569 0.441163 0.979400 0.825100
-0.460561 0.462158 0.486148 0.039484 0.963241
-0.460561 0.325372 0.486214 0.039484 0.826261
0.451313 0.325372 0.486489 0.951235 0.826261
-0.460561 0.462158 0.486148 0.917600 0.824700
0.451313 0.462159 0.486423 0.917600 0.576900
-0.461998 0.462022 0.440930 0.930000 0.825100
0.460405 0.325569 0.441163 0.039676 0.816632
-0.461998 0.325569 0.440996 0.961954 0.816632
0.460405 0.462022 0.441097 0.039676 0.964169
0.451313 0.325372 0.486489 0.967100 0.822700
0.460405 0.462022 0.441097 0.930000 0.574400
-0.461998 0.462022 0.440930 0.961954 0.964169
0.451313 0.462159 0.486423 0.951235 0.963242
0.471753 0.325372 -0.463085 0.963014 0.826306
0.471686 0.462159 -0.463085 0.963014 0.963252
0.471412 0.462158 0.448788 0.051455 0.963251
0.426260 0.325568 0.450225 0.950163 0.826503
0.426194 0.462022 0.450225 0.950163 0.963114
0.426360 0.462022 -0.472177 0.027905 0.963115
0.471686 0.462159 -0.463085 0.942300 0.576900
0.426360 0.462022 -0.472177 0.954700 0.574400
0.426194 0.462022 0.450225 0.954700 0.825100
0.471753 0.325372 -0.463085 0.913400 0.499000
0.471478 0.325372 0.448788 0.913400 0.251100
0.426427 0.325568 -0.472177 0.925800 0.501400
0.426427 0.325568 -0.472177 0.027905 0.826503
0.471412 0.462158 0.448788 0.942400 0.824700
0.471478 0.325372 0.448788 0.051455 0.826306
0.426260 0.325568 0.450225 0.925800 0.250700
-0.465822 0.325372 -0.486420 0.013677 0.826306
-0.465822 0.462159 -0.486354 0.013743 0.963252
0.446052 0.462158 -0.486079 0.014018 0.963251
0.447489 0.325568 -0.440927 0.947394 0.816741
0.447489 0.462022 -0.440860 0.947394 0.964248
-0.474914 0.462022 -0.441028 0.025116 0.964248
-0.465822 0.462159 -0.486354 0.947400 0.002500
-0.474914 0.462022 -0.441028 0.959800 0.000000
0.447489 0.462022 -0.440860 0.959800 0.250700
-0.465822 0.325372 -0.486420 0.959800 0.248200
0.446051 0.325372 -0.486145 0.959800 0.000400
-0.474914 0.325568 -0.441094 0.972200 0.250700
-0.474914 0.325568 -0.441094 0.025116 0.816741
0.446052 0.462158 -0.486079 0.947500 0.250300
0.446051 0.325372 -0.486145 0.013952 0.826306
0.447489 0.325568 -0.440927 0.972200 0.000000
-0.471648 0.325372 0.436541 0.936321 0.826306
-0.471582 0.462159 0.436541 0.936321 0.963252
-0.471308 0.462158 -0.475332 0.024761 0.963251
-0.426156 0.325568 -0.476769 0.976673 0.826503
-0.426090 0.462022 -0.476769 0.976673 0.963115
-0.426256 0.462022 0.445634 0.054413 0.963114
-0.471582 0.462159 0.436541 0.979400 0.576900
-0.426256 0.462022 0.445634 0.991800 0.574400
-0.426090 0.462022 -0.476769 0.991800 0.825100
-0.471648 0.325372 0.436541 0.025900 0.997500
-0.471374 0.325372 -0.475332 0.025900 0.749700
-0.426323 0.325568 0.445634 0.038300 1.000000
-0.426323 0.325568 0.445634 0.054413 0.826503
-0.471308 0.462158 -0.475332 0.979500 0.824700
-0.471374 0.325372 -0.475332 0.024761 0.826306
-0.426156 0.325568 -0.476769 0.038300 0.749300
3 0 1 2
3 3 4 5
3 6 7 8
3 9 10 11
3 12 13 14
3 15 16 17
3 18 6 8
3 19 9 11
3 20 12 14
3 21 22 23
3 24 21 23
3 5 25 3
3 26 27 28
3 29 30 31
3 32 33 34
3 35 36 37
3 38 39 40
3 41 42 43
3 44 32 34
3 45 35 37
3 46 38 40
3 47 48 49
3 50 47 49
3 31 51 29
3 52 53 54
3 55 56 57
3 58 59 60
3 61 62 63
3 64 55 57
3 65 66 67
3 62 68 63
3 69 70 43
3 53 71 54
3 72 73 74
3 67 75 65
3 59 76 60
3 77 78 79
3 78 80 79
3 2 81 0
3 82 83 84
3 85 86 87
3 86 88 87
3 83 89 84
3 90 91 92
3 93 94 95
3 73 96 74
3 95 97 93
3 91 98 92
3 99 100 101
3 102 41 43
3 16 103 17
3 42 69 43
3 104 105 106
3 107 26 28
3 108 109 110
3 105 111 106
3 112 113 114
3 115 116 117
3 109 118 110
3 119 120 121
3 101 122 99
3 123 119 121
3 120 124 125
3 121 120 125
3 126 127 128
3 114 129 112
3 130 131 132
3 133 134 135
3 131 136 132
3 137 133 135
3 138 126 128
3 116 139 117
3 140 141 142
3 143 144 145
3 146 147 148
3 149 150 151
3 152 143 145
3 153 146 148
3 142 154 140
3 150 155 151
3 156 157 158
3 159 160 161
3 162 163 164
3 165 166 167
3 168 156 158
3 163 169 164
3 166 170 167
3 161 171 159
3 172 173 174
3 175 176 177
3 178 179 180
3 181 182 183
3 184 172 174
3 179 185 180
3 182 186 183
3 177 187 175
3 188 189 190
3 191 192 193
3 194 195 196
3 197 188 190
3 198 199 200
3 200 201 198
3 202 194 196
3 192 203 193
3 204 205 206
3 207 208 74
3 208 72 74
3 205 209 206
3 210 211 212
3 213 214 215
3 215 216 213
3 211 217 212
3 218 219 220
3 221 222 223
3 224 225 226
3 225 227 226
3 219 228 220
3 229 221 223
3 230 231 232
3 232 233 230
3 234 235 236
3 237 238 239
3 240 241 242
3 243 244 245
3 246 237 239
3 247 240 242
3 236 248 234
3 244 249 245
3 250 251 252
3 253 254 255
3 256 257 258
3 257 259 258
3 251 260 252
3 261 253 255
3 262 263 264
3 264 265 262
3 266 267 268
3 269 270 271
3 272 273 274
3 275 276 277
3 278 269 271
3 279 272 274
3 268 280 266
3 276 281 277
3 282 283 284
3 285 286 287
3 288 282 284
3 289 290 291
3 292 289 291
3 293 294 295
3 287 296 285
3 294 297 295
3 298 299 300
3 301 302 303
3 304 305 306
3 307 308 309
3 310 301 303
3 311 304 306
3 300 312 298
3 308 313 309
3 314 315 316
3 317 318 319
3 320 321 322
3 323 324 325
3 326 317 319
3 327 320 322
3 316 328 314
3 324 329 325
3 330 331 332
3 333 334 335
3 336 337 338
3 339 340 341
3 342 333 335
3 343 336 338
3 332 344 330
3 340 345 341
3 346 347 348
3 349 350 351
3 352 353 354
3 355 356 357
3 358 346 348
3 353 359 354
3 356 360 357
3 351 361 349
3 362 363 364
3 365 366 367
3 368 369 370
3 371 372 373
3 374 365 367
3 375 368 370
3 364 376 362
3 372 377 373
3 378 379 380
3 381 382 383
3 384 385 386
3 387 388 389
3 390 381 383
3 391 384 386
3 380 392 378
3 388 393 389
3 394 395 396
3 397 398 399
3 400 401 402
3 403 404 405
3 406 397 399
3 407 400 402
3 396 408 394
3 404 409 405
3 410 411 412
3 413 414 415
3 416 417 418
3 419 410 412
3 420 421 422
3 422 423 420
3 424 416 418
3 414 425 415
3 426 427 428
3 429 430 431
3 432 433 434
3 433 435 434
3 427 436 428
3 437 429 431
3 438 439 440
3 440 441 438
3 442 443 444
3 445 446 447
3 448 449 450
3 449 451 450
3 443 452 444
3 453 445 447
3 454 455 456
3 456 457 454
3 458 459 460
3 461 462 463
3 464 458 460
3 465 466 467
3 468 465 467
3 469 470 471
3 463 472 461
3 470 473 471
3 474 475 476
3 477 478 479
3 480 481 482
3 483 474 476
3 484 485 486
3 486 487 484
3 488 480 482
3 478 489 479
3 490 491 492
3 493 494 495
3 496 497 498
3 497 499 498
3 491 500 492
3 501 502 503
3 504 505 506
3 506 507 504
3 508 509 510
3 511 512 513
3 514 515 516
3 515 517 516
3 509 518 510
3 519 511 513
3 520 521 522
3 522 523 520
3 524 525 526
3 527 528 529
3 530 524 526
3 531 532 533
3 534 531 533
3 535 536 537
3 529 538 527
3 536 539 537
3 540 541 542
3 543 544 545
3 546 547 548
3 549 550 551
3 552 543 545
3 553 546 548
3 542 554 540
3 550 555 551
3 556 557 558
3 559 560 561
3 562 563 564
3 565 566 567
3 568 559 561
3 569 562 564
3 558 570 556
3 566 571 567
3 572 573 574
3 575 576 577
3 578 579 580
3 581 572 574
3 582 583 584
3 584 585 582
3 586 578 580
3 576 587 577
3 588 589 590
3 591 592 593
3 594 595 596
3 595 597 596
3 589 598 590
3 599 591 593
3 600 601 602
3 602 603 600
3 604 605 606
3 607 608 609
3 610 611 612
3 611 613 612
3 605 614 606
3 615 607 609
3 616 617 618
3 618 619 616
3 620 621 622
3 623 624 625
3 626 620 622
3 627 628 629
3 630 627 629
3 631 632 633
3 625 634 623
3 632 635 633
3 636 637 638
3 639 640 641
3 642 643 644
3 645 646 647
3 648 636 638
3 643 649 644
3 646 650 647
3 641 651 639
3 652 653 654
3 655 656 657
3 658 659 660
3 661 662 663
3 664 655 657
3 665 658 660
3 654 666 652
3 662 667 663
3 668 669 670
3 671 672 673
3 674 675 676
3 677 678 679
3 680 671 673
3 681 674 676
3 670 682 668
3 678 683 679
3 684 685 686
3 687 688 689
3 690 691 692
3 693 694 695
3 696 687 689
3 697 690 692
3 686 698 684
3 694 699 695
