ply
format ascii 1.0
comment Created by Blender 2.90.0 - www.blender.org
element vertex 272
property float x
property float y
property float z
property float s
property float t
element face 122
property list uchar uint vertex_indices
end_header
-0.417531 0.571428 -0.417531 0.000000 0.000000
-0.417531 0.571428 0.417531 0.000000 0.000000
0.417531 0.571428 0.417531 0.000000 0.000000
0.417531 0.571428 -0.417531 0.000000 0.000000
-0.417531 1.500000 0.417531 8.118900 4.333300
-0.417531 0.571428 0.417531 8.118900 0.000000
-0.417531 0.571428 -0.417531 13.129200 0.000000
-0.417531 1.500000 -0.417531 13.129200 4.333300
0.417531 0.571428 0.417531 -8.118900 0.000000
0.417531 1.500000 0.417531 -8.118900 4.333300
0.417531 1.500000 -0.417531 -13.129200 4.333300
0.417531 0.571428 -0.417531 -13.129200 0.000000
-0.500000 0.500000 0.500000 -7.624000 -0.333300
-0.500000 1.500000 0.500000 -7.624000 4.333300
-0.500000 1.500000 -0.500000 -13.624000 4.333300
-0.500000 0.500000 -0.500000 -13.624000 -0.333300
-0.173108 1.393879 -0.417531 0.637000 0.000000
-0.180891 1.389579 -0.417531 0.583900 0.000000
-0.180891 1.389579 -0.500000 0.583900 -0.395900
-0.173108 1.393879 -0.500000 0.637000 -0.395900
-0.187710 1.383806 -0.417531 0.530800 0.000000
-0.187710 1.383806 -0.500000 0.530800 -0.395900
0.174117 1.393879 -0.417531 -16.249100 10.503400
-0.173108 1.393879 -0.417531 -14.165800 10.503400
-0.173108 1.393879 -0.500000 -14.165800 10.899200
0.174117 1.393879 -0.500000 -16.249100 10.899200
0.198470 1.333286 -0.417531 0.212300 0.000000
0.201031 1.341980 -0.417531 0.265400 0.000000
0.201031 1.341980 -0.500000 0.265400 0.395900
0.198470 1.333286 -0.500000 0.212300 0.395900
-0.200022 1.360065 -0.500000 0.371600 -0.395900
-0.200022 1.360065 -0.417531 0.371600 -0.000000
-0.200886 1.351022 -0.417531 0.318500 -0.000000
-0.200886 1.351022 -0.500000 0.318500 -0.395900
-0.417531 1.500000 0.417531 12.699300 6.495100
-0.500000 1.500000 -0.500000 12.204400 10.899200
-0.500000 1.500000 0.500000 12.204400 6.099200
0.500000 1.500000 0.500000 18.204399 6.099200
0.417531 1.500000 0.417531 17.709600 6.495100
0.417531 1.500000 -0.417531 17.709600 10.503400
0.500000 1.500000 -0.500000 18.204399 10.899200
-0.417531 1.500000 -0.417531 12.699300 10.503400
-0.173108 1.308165 -0.500000 14.165800 10.899200
-0.173108 1.308165 -0.417531 14.165800 10.503400
0.174117 1.308165 -0.417531 16.249100 10.503400
0.174117 1.308165 -0.500000 16.249100 10.899200
0.194314 1.376778 -0.500000 0.477800 0.395900
0.194314 1.376778 -0.417531 0.477800 -0.000000
0.188715 1.383806 -0.417531 0.530800 0.000000
0.188715 1.383806 -0.500000 0.530800 0.395900
0.181900 1.389579 -0.417531 0.583900 0.000000
0.181900 1.389579 -0.500000 0.583900 0.395900
0.198470 1.368758 -0.500000 0.424700 0.395900
0.198470 1.368758 -0.417531 0.424700 -0.000000
0.174117 1.308165 -0.500000 0.000000 0.395900
0.174117 1.308165 -0.417531 0.000000 0.000000
0.181900 1.312465 -0.417531 0.053100 0.000000
0.181900 1.312465 -0.500000 0.053100 0.395900
-0.193305 1.376778 -0.417531 0.477800 -0.000000
-0.193305 1.376778 -0.500000 0.477800 -0.395900
-0.193305 1.325267 -0.417531 0.159300 -0.000000
-0.187710 1.318238 -0.417531 0.106200 -0.000000
-0.187710 1.318238 -0.500000 0.106200 -0.395900
-0.193305 1.325267 -0.500000 0.159300 -0.395900
0.500000 0.500000 -0.500000 -18.204399 -0.333300
-0.500000 0.500000 -0.500000 -12.204400 -0.333300
-0.500000 1.500000 -0.500000 -12.204400 4.333300
-0.180891 1.312465 -0.500000 -14.119100 3.458200
-0.187710 1.318238 -0.500000 -14.078200 3.485100
-0.193305 1.325267 -0.500000 -14.044600 3.517900
-0.197461 1.333286 -0.500000 -14.019700 3.555300
-0.200022 1.341980 -0.500000 -14.004300 3.595900
-0.200886 1.351022 -0.500000 -13.999100 3.638100
-0.200022 1.360065 -0.500000 -14.004300 3.680300
-0.197461 1.368758 -0.500000 -14.019700 3.720900
-0.193305 1.376778 -0.500000 -14.044600 3.758300
-0.187710 1.383806 -0.500000 -14.078200 3.791100
-0.180891 1.389579 -0.500000 -14.119100 3.818100
-0.173108 1.393879 -0.500000 -14.165800 3.838100
0.174117 1.393879 -0.500000 -16.249100 3.838100
0.500000 1.500000 -0.500000 -18.204399 4.333300
0.181900 1.389579 -0.500000 -16.295799 3.818100
0.188715 1.383806 -0.500000 -16.336700 3.791100
0.194314 1.376778 -0.500000 -16.370300 3.758300
0.198470 1.368758 -0.500000 -16.395201 3.720900
0.201031 1.360065 -0.500000 -16.410601 3.680300
0.201895 1.351022 -0.500000 -16.415800 3.638100
0.201031 1.341980 -0.500000 -16.410601 3.595900
0.198470 1.333286 -0.500000 -16.395201 3.555300
0.194314 1.325267 -0.500000 -16.370300 3.517900
0.188715 1.318238 -0.500000 -16.336700 3.485100
0.181900 1.312465 -0.500000 -16.295799 3.458200
0.174117 1.308165 -0.500000 -16.249100 3.438100
-0.173108 1.308165 -0.500000 -14.165800 3.438100
0.500000 1.500000 0.500000 7.624000 4.333300
0.500000 0.500000 0.500000 7.624000 -0.333300
0.500000 0.500000 -0.500000 13.624000 -0.333300
0.500000 1.500000 -0.500000 13.624000 4.333300
-0.417531 0.571428 -0.417531 12.699300 0.000000
0.417531 0.571428 -0.417531 17.709600 0.000000
0.417531 1.500000 -0.417531 17.709600 4.333300
0.181900 1.312465 -0.417531 16.295799 3.458200
0.188715 1.318238 -0.417531 16.336700 3.485100
0.194314 1.325267 -0.417531 16.370300 3.517900
0.198470 1.333286 -0.417531 16.395201 3.555300
0.201031 1.341980 -0.417531 16.410601 3.595900
0.201895 1.351022 -0.417531 16.415800 3.638100
0.201031 1.360065 -0.417531 16.410601 3.680300
0.198470 1.368758 -0.417531 16.395201 3.720900
0.194314 1.376778 -0.417531 16.370300 3.758300
0.188715 1.383806 -0.417531 16.336700 3.791100
0.181900 1.389579 -0.417531 16.295799 3.818100
0.174117 1.393879 -0.417531 16.249100 3.838100
-0.173108 1.393879 -0.417531 14.165800 3.838100
-0.417531 1.500000 -0.417531 12.699300 4.333300
-0.180891 1.389579 -0.417531 14.119100 3.818100
-0.187710 1.383806 -0.417531 14.078200 3.791100
-0.193305 1.376778 -0.417531 14.044600 3.758300
-0.197461 1.368758 -0.417531 14.019700 3.720900
-0.200022 1.360065 -0.417531 14.004300 3.680300
-0.200886 1.351022 -0.417531 13.999100 3.638100
-0.200022 1.341980 -0.417531 14.004300 3.595900
-0.197461 1.333286 -0.417531 14.019700 3.555300
-0.193305 1.325267 -0.417531 14.044600 3.517900
-0.187710 1.318238 -0.417531 14.078200 3.485100
-0.180891 1.312465 -0.417531 14.119100 3.458200
-0.173108 1.308165 -0.417531 14.165800 3.438100
0.174117 1.308165 -0.417531 16.249100 3.438100
-0.180891 1.312465 -0.500000 0.053100 -0.395900
-0.180891 1.312465 -0.417531 0.053100 0.000000
-0.173108 1.308165 -0.417531 0.000000 0.000000
-0.173108 1.308165 -0.500000 0.000000 -0.395900
-0.200022 1.341980 -0.417531 0.265400 0.000000
-0.200022 1.341980 -0.500000 0.265400 -0.395900
0.194314 1.325267 -0.417531 0.159300 -0.000000
0.194314 1.325267 -0.500000 0.159300 0.395900
0.174117 1.393879 -0.417531 0.637000 0.000000
0.174117 1.393879 -0.500000 0.637000 0.395900
0.201895 1.351022 -0.417531 0.318500 -0.000000
0.201895 1.351022 -0.500000 0.318500 0.395900
0.201031 1.360065 -0.417531 0.371600 -0.000000
0.201031 1.360065 -0.500000 0.371600 0.395900
-0.197461 1.333286 -0.417531 0.212300 0.000000
-0.197461 1.333286 -0.500000 0.212300 -0.395900
0.188715 1.318238 -0.417531 0.106200 -0.000000
0.188715 1.318238 -0.500000 0.106200 0.395900
-0.197461 1.368758 -0.417531 0.424700 -0.000000
-0.197461 1.368758 -0.500000 0.424700 -0.395900
-0.174114 1.308165 0.417531 14.159700 6.495100
-0.174114 1.308165 0.500000 14.159700 6.099200
0.173108 1.308165 0.500000 16.243099 6.099200
0.173108 1.308165 0.417531 16.243099 6.495100
0.173108 1.308165 0.417531 0.000000 0.000000
0.173108 1.308165 0.500000 0.000000 -0.395900
0.180891 1.312465 0.500000 0.053100 -0.395900
0.180891 1.312465 0.417531 0.053100 0.000000
-0.198470 1.333286 0.500000 0.212300 0.395900
-0.194310 1.325266 0.500000 0.159300 0.395900
-0.194310 1.325266 0.417531 0.159300 -0.000000
-0.198470 1.333286 0.417531 0.212300 0.000000
0.200022 1.341980 0.500000 0.265400 -0.395900
0.200886 1.351022 0.500000 0.318500 -0.395900
0.200886 1.351022 0.417531 0.318500 -0.000000
0.200022 1.341980 0.417531 0.265400 0.000000
0.200022 1.360064 0.500000 0.371600 -0.395900
0.200022 1.360064 0.417531 0.371600 -0.000000
-0.201027 1.341980 0.500000 0.265400 0.395900
-0.201027 1.341980 0.417531 0.265400 0.000000
-0.174114 1.393879 0.500000 -14.159700 6.099200
-0.174114 1.393879 0.417531 -14.159700 6.495100
0.173108 1.393879 0.417531 -16.243099 6.495100
0.173108 1.393879 0.500000 -16.243099 6.099200
-0.181896 1.389579 0.500000 0.583900 0.395900
-0.181896 1.389579 0.417531 0.583900 0.000000
-0.174114 1.393879 0.417531 0.637000 0.000000
-0.174114 1.393879 0.500000 0.637000 0.395900
-0.194310 1.376778 0.500000 0.477800 0.395900
-0.198470 1.368758 0.500000 0.424700 0.395900
-0.198470 1.368758 0.417531 0.424700 -0.000000
-0.194310 1.376778 0.417531 0.477800 -0.000000
-0.188715 1.383806 0.500000 0.530800 0.395900
-0.188715 1.383806 0.417531 0.530800 0.000000
0.173108 1.393879 0.500000 0.637000 -0.395900
0.173108 1.393879 0.417531 0.637000 0.000000
0.180891 1.389579 0.417531 0.583900 0.000000
0.180891 1.389579 0.500000 0.583900 -0.395900
0.187710 1.383806 0.417531 0.530800 0.000000
0.187710 1.383806 0.500000 0.530800 -0.395900
-0.181896 1.312465 0.417531 0.053100 0.000000
-0.181896 1.312465 0.500000 0.053100 0.395900
-0.174114 1.308165 0.500000 0.000000 0.395900
-0.174114 1.308165 0.417531 0.000000 0.000000
0.197461 1.368758 0.500000 0.424700 -0.395900
0.197461 1.368758 0.417531 0.424700 -0.000000
0.193305 1.376778 0.500000 0.477800 -0.395900
0.193305 1.376778 0.417531 0.477800 -0.000000
0.197461 1.333286 0.500000 0.212300 -0.395900
0.197461 1.333286 0.417531 0.212300 0.000000
0.193305 1.325266 0.500000 0.159300 -0.395900
0.193305 1.325266 0.417531 0.159300 -0.000000
0.187710 1.318238 0.500000 0.106200 -0.395900
0.187710 1.318238 0.417531 0.106200 -0.000000
-0.188715 1.318238 0.500000 0.106200 0.395900
-0.188715 1.318238 0.417531 0.106200 -0.000000
-0.201027 1.360064 0.500000 0.371600 0.395900
-0.201027 1.360064 0.417531 0.371600 -0.000000
0.417531 0.571428 0.417531 -17.709600 0.000000
-0.417531 0.571428 0.417531 -12.699300 0.000000
-0.417531 1.500000 0.417531 -12.699300 4.333300
-0.181896 1.312465 0.417531 -14.113100 3.458200
-0.188715 1.318238 0.417531 -14.072100 3.485100
-0.194310 1.325266 0.417531 -14.038600 3.517900
-0.198470 1.333286 0.417531 -14.013600 3.555300
-0.201027 1.341980 0.417531 -13.998300 3.595900
-0.201892 1.351022 0.417531 -13.993100 3.638100
-0.201027 1.360064 0.417531 -13.998300 3.680300
-0.198470 1.368758 0.417531 -14.013600 3.720900
-0.194310 1.376778 0.417531 -14.038600 3.758300
-0.188715 1.383806 0.417531 -14.072100 3.791100
-0.181896 1.389579 0.417531 -14.113100 3.818100
-0.174114 1.393879 0.417531 -14.159700 3.838100
0.173108 1.393879 0.417531 -16.243099 3.838100
0.417531 1.500000 0.417531 -17.709600 4.333300
0.180891 1.389579 0.417531 -16.289801 3.818100
0.187710 1.383806 0.417531 -16.330700 3.791100
0.193305 1.376778 0.417531 -16.364300 3.758300
0.197461 1.368758 0.417531 -16.389200 3.720900
0.200022 1.360064 0.417531 -16.404600 3.680300
0.200886 1.351022 0.417531 -16.409700 3.638100
0.200022 1.341980 0.417531 -16.404600 3.595900
0.197461 1.333286 0.417531 -16.389200 3.555300
0.193305 1.325266 0.417531 -16.364300 3.517900
0.187710 1.318238 0.417531 -16.330700 3.485100
0.180891 1.312465 0.417531 -16.289801 3.458200
0.173108 1.308165 0.417531 -16.243099 3.438100
-0.174114 1.308165 0.417531 -14.159700 3.438100
-0.201892 1.351022 0.500000 0.318500 0.395900
-0.201892 1.351022 0.417531 0.318500 -0.000000
-0.500000 0.500000 0.500000 -12.204400 6.099200
-0.500000 0.500000 -0.500000 -12.204400 10.899200
0.500000 0.500000 -0.500000 -18.204399 10.899200
0.500000 0.500000 0.500000 -18.204399 6.099200
-0.500000 0.500000 0.500000 12.204400 -0.333300
0.500000 0.500000 0.500000 18.204399 -0.333300
0.500000 1.500000 0.500000 18.204399 4.333300
0.180891 1.312465 0.500000 16.289801 3.458200
0.187710 1.318238 0.500000 16.330700 3.485100
0.193305 1.325266 0.500000 16.364300 3.517900
0.197461 1.333286 0.500000 16.389200 3.555300
0.200022 1.341980 0.500000 16.404600 3.595900
0.200886 1.351022 0.500000 16.409700 3.638100
0.200022 1.360064 0.500000 16.404600 3.680300
0.197461 1.368758 0.500000 16.389200 3.720900
0.193305 1.376778 0.500000 16.364300 3.758300
0.187710 1.383806 0.500000 16.330700 3.791100
0.180891 1.389579 0.500000 16.289801 3.818100
0.173108 1.393879 0.500000 16.243099 3.838100
-0.174114 1.393879 0.500000 14.159700 3.838100
-0.500000 1.500000 0.500000 12.204400 4.333300
-0.181896 1.389579 0.500000 14.113100 3.818100
-0.188715 1.383806 0.500000 14.072100 3.791100
-0.194310 1.376778 0.500000 14.038600 3.758300
-0.198470 1.368758 0.500000 14.013600 3.720900
-0.201027 1.360064 0.500000 13.998300 3.680300
-0.201892 1.351022 0.500000 13.993100 3.638100
-0.201027 1.341980 0.500000 13.998300 3.595900
-0.198470 1.333286 0.500000 14.013600 3.555300
-0.194310 1.325266 0.500000 14.038600 3.517900
-0.188715 1.318238 0.500000 14.072100 3.485100
-0.181896 1.312465 0.500000 14.113100 3.458200
-0.174114 1.308165 0.500000 14.159700 3.438100
0.173108 1.308165 0.500000 16.243099 3.438100
4 0 1 2 3
4 4 5 6 7
4 8 9 10 11
4 12 13 14 15
4 16 17 18 19
4 17 20 21 18
4 22 23 24 25
4 26 27 28 29
4 30 31 32 33
4 34 35 36 37
4 38 34 37 39
4 39 37 40 41
4 41 40 35 34
4 42 43 44 45
4 46 47 48 49
4 48 50 51 49
4 52 53 47 46
4 54 55 56 57
4 21 20 58 59
4 60 61 62 63
4 64 65 66 67
4 68 67 66 69
4 70 69 66 71
4 72 71 66 73
4 74 73 66 75
4 76 75 66 77
4 78 77 66 79
4 79 66 80 81
4 82 81 80 83
4 84 83 80 85
4 86 85 80 87
4 88 87 80 89
4 90 89 80 91
4 91 80 64 92
4 93 92 64 67
4 94 95 96 97
4 98 99 100 101
4 102 101 100 103
4 104 103 100 105
4 106 105 100 107
4 108 107 100 109
4 110 109 100 111
4 112 111 100 113
4 113 100 114 115
4 116 115 114 117
4 118 117 114 119
4 120 119 114 121
4 122 121 114 123
4 124 123 114 125
4 125 114 98 126
4 127 126 98 101
4 128 129 130 131
4 32 132 133 33
4 134 26 29 135
4 50 136 137 51
4 27 138 139 28
4 139 138 140 141
4 62 61 129 128
4 142 60 63 143
4 132 142 143 133
4 57 56 144 145
4 144 134 135 145
4 59 58 146 147
4 147 146 31 30
4 141 140 53 52
4 148 149 150 151
4 152 153 154 155
4 156 157 158 159
4 160 161 162 163
4 161 164 165 162
4 166 156 159 167
4 168 169 170 171
4 172 173 174 175
4 176 177 178 179
4 180 181 173 172
4 180 176 179 181
4 182 183 184 185
4 185 184 186 187
4 188 189 190 191
4 164 192 193 165
4 192 194 195 193
4 196 160 163 197
4 198 196 197 199
4 155 154 200 201
4 200 198 199 201
4 157 202 203 158
4 203 202 189 188
4 177 204 205 178
4 206 207 208 209
4 210 209 208 211
4 212 211 208 213
4 214 213 208 215
4 216 215 208 217
4 218 217 208 219
4 220 219 208 221
4 221 208 222 223
4 224 223 222 225
4 226 225 222 227
4 228 227 222 229
4 230 229 222 231
4 232 231 222 233
4 233 222 206 234
4 235 234 206 209
4 194 187 186 195
4 204 236 237 205
4 236 166 167 237
4 238 239 240 241
4 242 243 244 245
4 246 245 244 247
4 248 247 244 249
4 250 249 244 251
4 252 251 244 253
4 254 253 244 255
4 256 255 244 257
4 257 244 258 259
4 260 259 258 261
4 262 261 258 263
4 264 263 258 265
4 266 265 258 267
4 268 267 258 269
4 269 258 242 270
4 271 270 242 245
