ply
format ascii 1.0
comment Created by Blender 2.90.0 - www.blender.org
element vertex 696
property float x
property float y
property float z
property float s
property float t
element face 352
property list uchar uint vertex_indices
end_header
-0.500050 0.498648 0.500034 0.484500 0.770400
-0.400036 0.498648 0.500035 0.457200 0.770400
-0.400020 0.498649 -0.500100 0.457200 0.498600
0.500085 -0.429713 0.430062 0.813300 0.180900
0.400073 -0.429713 0.430060 0.786000 0.180900
0.400073 0.428856 0.430060 0.786000 0.019000
0.400073 -0.429713 0.430060 0.835500 0.593400
0.400072 -0.499722 0.500070 0.854600 0.574400
0.400072 0.498865 0.500070 0.854600 0.774300
0.400072 -0.499722 0.500070 0.688400 0.701300
0.500085 -0.499722 0.500071 0.661100 0.701300
0.500085 0.498865 0.500071 0.661100 0.501400
0.500086 0.428856 0.430062 0.854600 0.593400
0.500085 0.498865 0.500071 0.873700 0.574400
0.500085 -0.499722 0.500071 0.873700 0.774300
-0.400020 0.498649 -0.500100 0.835500 0.250700
-0.400036 0.498648 0.500035 0.835500 0.522600
-0.400020 0.428640 -0.430090 0.816400 0.269700
0.400073 0.428856 0.430060 0.835500 0.755300
0.400072 0.498865 0.500070 0.688400 0.501400
0.500085 -0.429713 0.430062 0.854600 0.755300
0.400072 0.498865 0.500070 0.786000 0.000000
0.500085 0.498865 0.500071 0.813300 0.000000
0.500086 0.428856 0.430062 0.813300 0.019000
-0.500032 0.498649 -0.500102 0.835500 0.794400
-0.500033 0.428640 -0.430092 0.816400 0.775400
-0.500049 0.428640 0.430024 0.816400 0.541600
-0.400036 -0.429713 0.430046 0.840600 0.180900
-0.500049 -0.429713 0.430044 0.813300 0.180900
-0.500049 0.428856 0.430044 0.813300 0.019000
-0.500049 -0.429713 0.430044 0.901000 0.431600
-0.500050 -0.499722 0.500054 0.881900 0.450600
-0.500050 0.498865 0.500054 0.881900 0.250700
-0.500050 -0.499722 0.500054 0.758700 0.199900
-0.400037 -0.499722 0.500055 0.731500 0.199900
-0.400037 0.498865 0.500055 0.731500 0.000000
-0.400035 0.428856 0.430046 0.859700 0.019000
-0.400037 0.498865 0.500055 0.878800 0.000000
-0.400037 -0.499722 0.500055 0.878800 0.199900
-0.500050 0.498648 0.500034 0.623700 0.498600
-0.500049 0.428640 0.430024 0.623700 0.517600
-0.400035 0.428640 0.430026 0.596400 0.517600
-0.500049 0.428856 0.430044 0.901000 0.269700
-0.500050 0.498865 0.500054 0.758700 0.000000
-0.400036 -0.429713 0.430046 0.859700 0.180900
-0.500050 0.498865 0.500054 0.813300 0.000000
-0.400037 0.498865 0.500055 0.840600 0.000000
-0.400035 0.428856 0.430046 0.840600 0.019000
-0.400018 -0.499764 -0.499891 0.750600 0.247900
-0.500032 -0.499764 -0.499892 0.750600 0.220700
-0.400020 -0.429755 -0.429881 0.769700 0.247900
-0.400018 -0.499764 -0.499891 0.797300 0.522600
-0.400020 -0.429755 -0.429881 0.778200 0.503500
-0.400035 -0.429755 0.430235 0.778200 0.269700
-0.500032 -0.499764 -0.499892 0.797300 0.522600
-0.500050 -0.499764 0.500242 0.797300 0.250700
-0.500033 -0.429755 -0.429883 0.816400 0.503500
-0.500033 -0.429755 -0.429883 0.288100 0.501400
-0.500049 -0.429755 0.430233 0.288100 0.735200
-0.400020 -0.429755 -0.429881 0.260800 0.501400
-0.400038 -0.499764 0.500244 0.797300 0.250700
-0.500032 -0.499764 -0.499892 0.559100 0.498600
-0.400018 -0.499764 -0.499891 0.586400 0.498600
-0.400038 -0.499764 0.500244 0.586400 0.770400
-0.400035 -0.429755 0.430235 0.260800 0.735200
-0.500033 0.428640 -0.430092 0.623700 0.751400
-0.400020 0.428640 -0.430090 0.596400 0.751400
-0.500033 -0.429755 -0.429883 0.769700 0.220700
0.400073 0.428640 0.430040 0.176200 0.517600
0.400088 0.428640 -0.430076 0.176200 0.751400
0.500086 0.428640 0.430042 0.148900 0.517600
-0.500050 -0.499764 0.500242 0.559100 0.770400
-0.500049 -0.429755 0.430233 0.816400 0.269700
0.400088 -0.429755 -0.429867 0.661100 0.501400
0.400073 -0.429755 0.430249 0.661100 0.735200
0.500102 -0.429755 -0.429865 0.633800 0.501400
0.500086 -0.429755 0.430251 0.633800 0.735200
-0.500032 0.498649 -0.500102 0.484500 0.498600
0.500084 -0.499764 0.500261 0.778200 0.250700
0.500103 -0.499764 -0.499875 0.778200 0.522600
0.500086 -0.429755 0.430251 0.759100 0.269700
0.500103 -0.499764 -0.499875 0.731500 0.247900
0.400089 -0.499764 -0.499876 0.731500 0.220700
0.500102 -0.429755 -0.429865 0.750600 0.247900
0.400088 -0.429755 -0.429867 0.750600 0.220700
0.500102 -0.429755 -0.429865 0.759100 0.503500
0.400089 -0.499764 -0.499876 0.759100 0.794400
0.400072 -0.499764 0.500259 0.759100 0.522600
0.400088 -0.429755 -0.429867 0.778200 0.775400
0.400089 -0.499764 -0.499876 0.731800 0.250700
0.500103 -0.499764 -0.499875 0.759100 0.250700
0.500084 -0.499764 0.500261 0.759100 0.522600
0.500102 0.428640 -0.430074 0.148900 0.751400
0.400072 -0.499764 0.500259 0.731800 0.522600
0.400073 -0.429755 0.430249 0.778200 0.541600
-0.500033 -0.429971 -0.429903 0.835500 0.250700
-0.400020 -0.429971 -0.429901 0.862800 0.250700
-0.400021 0.428598 -0.429902 0.862800 0.412600
-0.400036 0.498648 0.500035 0.596400 0.498600
-0.400035 0.428640 0.430026 0.816400 0.503500
-0.400020 -0.429971 -0.429901 0.546700 0.749300
-0.500033 -0.429971 -0.429903 0.546700 0.776500
-0.400019 -0.499980 -0.499911 0.527600 0.749300
-0.500050 0.498648 0.500034 0.835500 0.522600
-0.400021 0.428598 -0.429902 0.878800 0.180900
-0.400020 -0.429971 -0.429901 0.878800 0.019000
-0.400019 0.498607 -0.499911 0.898000 0.199900
-0.500032 -0.499980 -0.499913 0.527600 0.776500
0.400088 -0.429971 -0.429887 0.835500 0.412600
0.500102 -0.429971 -0.429885 0.862800 0.412600
0.500101 0.428598 -0.429885 0.862800 0.574400
0.500102 -0.429971 -0.429885 0.205300 0.749300
0.400088 -0.429971 -0.429887 0.205300 0.776500
0.500103 -0.499980 -0.499895 0.186200 0.749300
-0.400019 -0.499980 -0.499911 0.898000 0.000000
-0.500033 0.428598 -0.429903 0.859700 0.180900
-0.500032 0.498607 -0.499913 0.840600 0.199900
-0.500032 -0.499980 -0.499913 0.840600 0.000000
-0.500033 0.428598 -0.429903 0.835500 0.412600
-0.500033 -0.429971 -0.429903 0.859700 0.019000
-0.500032 0.498607 -0.499913 0.758700 0.000000
-0.400019 0.498607 -0.499911 0.786000 0.000000
-0.400019 -0.499980 -0.499911 0.786000 0.199900
-0.500032 -0.499980 -0.499913 0.758700 0.199900
0.400088 0.428598 -0.429887 0.862800 0.269700
0.400089 0.498607 -0.499897 0.881900 0.250700
0.400090 -0.499980 -0.499896 0.881900 0.450600
0.400088 0.428598 -0.429887 0.835500 0.574400
0.400090 -0.499980 -0.499896 0.759100 0.522600
0.400089 0.498607 -0.499897 0.759100 0.722500
0.500103 -0.499980 -0.499895 0.731800 0.522600
0.500102 -0.429971 -0.429885 0.873700 0.593400
0.500103 -0.499980 -0.499895 0.892900 0.574400
0.500103 0.498607 -0.499895 0.892900 0.774300
0.500103 0.498607 -0.499895 0.731800 0.722500
0.500101 0.428598 -0.429885 0.873700 0.755300
0.400088 -0.429971 -0.429887 0.862800 0.431600
0.400090 -0.499980 -0.499896 0.186200 0.776500
0.451324 -0.487959 -0.119603 0.256200 0.746400
0.451322 -0.487893 0.000374 0.223400 0.746400
-0.460553 -0.487635 0.000355 0.223400 0.498600
-0.461988 -0.442482 -0.119425 0.633400 0.000000
-0.461990 -0.442416 0.000219 0.666100 0.000000
0.460413 -0.442566 0.000236 0.666100 0.250700
0.451322 -0.487893 0.000374 0.975300 0.253200
0.460413 -0.442566 0.000236 0.987600 0.250700
-0.461990 -0.442416 0.000219 0.987600 0.501400
0.451324 -0.487959 -0.119603 0.901000 0.499000
-0.460551 -0.487701 -0.119620 0.901100 0.251100
0.460415 -0.442632 -0.119407 0.913400 0.501400
0.460415 -0.442632 -0.119407 0.633400 0.250700
-0.460553 -0.487635 0.000355 0.975300 0.501000
-0.460551 -0.487701 -0.119620 0.256200 0.498600
-0.461988 -0.442482 -0.119425 0.913400 0.250700
-0.460558 -0.487701 0.267156 0.361000 0.499000
-0.461995 -0.442482 0.267351 0.373300 0.498600
0.460408 -0.442633 0.267368 0.373300 0.749300
-0.460560 -0.487635 0.387131 0.698700 0.000000
-0.460558 -0.487701 0.267156 0.731500 0.000000
0.451317 -0.487959 0.267173 0.731500 0.247900
-0.460560 -0.487635 0.387131 0.984600 0.250300
0.451315 -0.487893 0.387149 0.984500 0.002500
-0.461997 -0.442416 0.386995 0.996900 0.250700
0.460408 -0.442633 0.267368 0.293400 0.250700
-0.461995 -0.442482 0.267351 0.293400 0.501400
0.460406 -0.442567 0.387011 0.260800 0.250700
0.451317 -0.487959 0.267173 0.361000 0.746800
0.460406 -0.442567 0.387011 0.996900 0.000000
-0.461997 -0.442416 0.386995 0.260800 0.501400
0.451315 -0.487893 0.387149 0.698700 0.247900
-0.460561 -0.415363 0.486214 0.967100 0.574800
-0.461998 -0.415167 0.440996 0.979400 0.574400
0.460405 -0.415167 0.441163 0.979400 0.825100
-0.460561 -0.278577 0.486148 0.186200 0.498600
-0.460561 -0.415363 0.486214 0.148900 0.498600
0.451313 -0.415363 0.486489 0.148900 0.250700
-0.460561 -0.278577 0.486148 0.917600 0.824700
0.451313 -0.278576 0.486423 0.917600 0.576900
-0.461998 -0.278713 0.440930 0.930000 0.825100
0.460405 -0.415167 0.441163 0.446900 0.250700
-0.461998 -0.415167 0.440996 0.446900 0.000000
0.460405 -0.278713 0.441097 0.484100 0.250700
0.451313 -0.415363 0.486489 0.967100 0.822700
0.460405 -0.278713 0.441097 0.930000 0.574400
-0.461998 -0.278713 0.440930 0.484100 0.000000
0.451313 -0.278576 0.486423 0.186200 0.250700
-0.471374 -0.266762 -0.475332 0.000000 0.749700
-0.426156 -0.266566 -0.476769 0.012400 0.749300
-0.426323 -0.266565 0.445634 0.012400 1.000000
-0.471308 -0.129976 -0.475332 0.648700 0.985500
-0.471582 -0.129975 0.436541 0.648700 0.737700
-0.426090 -0.130112 -0.476769 0.661100 0.985900
-0.426156 -0.266566 -0.476769 0.000000 0.000000
-0.426090 -0.130112 -0.476769 0.037200 0.000000
-0.426256 -0.130112 0.445634 0.037200 0.250700
-0.471648 -0.266761 0.436542 0.000000 0.997500
-0.471308 -0.129976 -0.475332 0.223400 0.250700
-0.471374 -0.266762 -0.475332 0.260800 0.250700
-0.471648 -0.266761 0.436542 0.260800 0.498600
-0.471582 -0.129975 0.436541 0.223400 0.498600
-0.426323 -0.266565 0.445634 0.000000 0.250700
-0.426256 -0.130112 0.445634 0.661100 0.735200
0.500102 0.498649 -0.500084 0.778200 0.794400
0.500085 0.498649 0.500051 0.778200 0.522600
0.500102 0.428640 -0.430074 0.797300 0.775400
0.500085 0.498649 0.500051 0.148900 0.498600
0.400072 0.498649 0.500050 0.176200 0.498600
0.500086 0.428640 0.430042 0.797300 0.541600
0.400072 0.498649 0.500050 0.816400 0.522600
0.400090 0.498649 -0.500086 0.816400 0.794400
0.400073 0.428640 0.430040 0.797300 0.541600
0.400072 0.498649 0.500050 0.101800 0.770400
0.500085 0.498649 0.500051 0.074500 0.770400
0.500102 0.498649 -0.500084 0.074500 0.498600
0.400090 0.498649 -0.500086 0.101800 0.498600
0.400088 0.428640 -0.430076 0.797300 0.775400
0.446052 -0.129976 -0.486079 0.950600 0.501000
-0.465822 -0.129975 -0.486354 0.950500 0.253200
0.447489 -0.130112 -0.440861 0.962900 0.501400
0.447489 -0.266566 -0.440927 0.223400 0.000000
0.447489 -0.130112 -0.440861 0.260700 0.000000
-0.474914 -0.130112 -0.441028 0.260700 0.250700
-0.465822 -0.266762 -0.486420 0.633800 0.983500
0.446052 -0.266762 -0.486145 0.633800 0.735600
-0.474914 -0.266566 -0.441094 0.646100 0.985900
0.447489 -0.266566 -0.440927 0.646100 0.735200
-0.474914 -0.130112 -0.441028 0.962900 0.250700
-0.474914 -0.266566 -0.441094 0.223400 0.250700
0.446052 -0.129976 -0.486079 0.633800 0.498600
0.446052 -0.266762 -0.486145 0.596400 0.498600
-0.465822 -0.266762 -0.486420 0.596400 0.250700
-0.465822 -0.129975 -0.486354 0.633800 0.250700
0.471753 -0.415363 -0.463085 0.633400 0.247900
0.471686 -0.278576 -0.463085 0.596100 0.247900
0.471412 -0.278577 0.448788 0.596100 0.000000
0.426260 -0.415167 0.450225 0.335100 0.000000
0.426194 -0.278713 0.450225 0.372400 0.000000
0.426360 -0.278713 -0.472177 0.372400 0.250700
0.471686 -0.278576 -0.463085 0.942300 0.576900
0.426360 -0.278713 -0.472177 0.954700 0.574400
0.426194 -0.278713 0.450225 0.954700 0.825100
0.471753 -0.415363 -0.463085 0.913400 0.499000
0.471478 -0.415363 0.448788 0.913400 0.251100
0.426427 -0.415167 -0.472177 0.925800 0.501400
0.426427 -0.415167 -0.472177 0.335100 0.250700
0.471412 -0.278577 0.448788 0.942400 0.824700
0.471478 -0.415363 0.448788 0.633400 0.000000
0.426260 -0.415167 0.450225 0.925800 0.250700
0.471412 -0.129976 0.448788 0.484500 0.996700
0.471686 -0.129975 -0.463085 0.484500 0.748900
0.426194 -0.130112 0.450225 0.496800 0.997100
0.426260 -0.266565 0.450226 0.409600 0.000000
0.426194 -0.130112 0.450225 0.446900 0.000000
0.426360 -0.130112 -0.472177 0.446900 0.250700
0.471753 -0.266762 -0.463085 0.925800 0.499000
0.471478 -0.266761 0.448788 0.925800 0.251100
0.426427 -0.266566 -0.472177 0.938200 0.501400
0.426260 -0.266565 0.450226 0.938200 0.250700
0.426360 -0.130112 -0.472177 0.496800 0.746400
0.426427 -0.266566 -0.472177 0.409600 0.250700
0.471412 -0.129976 0.448788 0.484100 0.000000
0.471478 -0.266761 0.448788 0.521400 0.000000
0.471753 -0.266762 -0.463085 0.521400 0.247900
0.471686 -0.129975 -0.463085 0.484100 0.247900
-0.465822 -0.415363 -0.486420 0.409800 0.498600
-0.465822 -0.278576 -0.486354 0.372500 0.498600
0.446052 -0.278577 -0.486079 0.372500 0.250700
0.447489 -0.415167 -0.440927 0.037200 0.000000
0.447489 -0.278713 -0.440860 0.074500 0.000000
-0.474914 -0.278713 -0.441028 0.074500 0.250700
-0.465822 -0.278576 -0.486354 0.947400 0.002500
-0.474914 -0.278713 -0.441028 0.959800 0.000000
0.447489 -0.278713 -0.440860 0.959800 0.250700
-0.465822 -0.415363 -0.486420 0.959800 0.248200
0.446051 -0.415363 -0.486145 0.959800 0.000400
-0.474914 -0.415167 -0.441094 0.972200 0.250700
-0.474914 -0.415167 -0.441094 0.037200 0.250700
0.446052 -0.278577 -0.486079 0.947500 0.250300
0.446051 -0.415363 -0.486145 0.409800 0.250700
0.447489 -0.415167 -0.440927 0.972200 0.000000
-0.461998 -0.266565 0.440996 0.037200 0.250700
-0.461998 -0.130112 0.440930 0.074500 0.250700
0.460405 -0.130112 0.441097 0.074500 0.501400
-0.460561 -0.129976 0.486148 0.111800 0.498600
-0.460561 -0.266761 0.486214 0.074500 0.498600
0.451313 -0.266761 0.486489 0.074500 0.250700
0.460405 -0.266565 0.441163 0.037200 0.501400
0.451313 -0.129975 0.486423 0.377100 0.748900
0.460405 -0.130112 0.441097 0.389400 0.746400
-0.461998 -0.130112 0.440930 0.389400 0.997100
-0.460561 -0.129976 0.486148 0.377100 0.996700
0.451313 -0.266761 0.486489 0.935100 0.248200
-0.460561 -0.266761 0.486214 0.935100 0.000400
0.460405 -0.266565 0.441163 0.947400 0.250700
0.451313 -0.129975 0.486423 0.111800 0.250700
-0.461998 -0.266565 0.440996 0.947400 0.000000
-0.471648 -0.415363 0.436541 0.447100 0.250700
-0.471582 -0.278576 0.436541 0.484500 0.250700
-0.471308 -0.278577 -0.475332 0.484500 0.498600
-0.426156 -0.415167 -0.476769 0.149000 0.250700
-0.426090 -0.278713 -0.476769 0.111700 0.250700
-0.426256 -0.278713 0.445634 0.111700 0.000000
-0.471582 -0.278576 0.436541 0.979400 0.576900
-0.426256 -0.278713 0.445634 0.991800 0.574400
-0.426090 -0.278713 -0.476769 0.991800 0.825100
-0.471648 -0.415363 0.436541 0.025900 0.997500
-0.471374 -0.415363 -0.475332 0.025900 0.749700
-0.426323 -0.415167 0.445634 0.038300 1.000000
-0.426323 -0.415167 0.445634 0.149000 0.000000
-0.471308 -0.278577 -0.475332 0.979500 0.824700
-0.471374 -0.415363 -0.475332 0.447100 0.498600
-0.426156 -0.415167 -0.476769 0.038300 0.749300
-0.426147 0.495161 -0.494936 0.025900 0.749300
-0.426149 0.495095 -0.399963 0.000000 0.749300
0.485724 0.494836 -0.399947 0.000000 0.501400
0.487164 0.449683 -0.494723 0.699100 0.498600
0.487162 0.449617 -0.400083 0.724900 0.498600
-0.435240 0.449768 -0.400100 0.724900 0.749300
-0.426149 0.495095 -0.399963 0.731800 0.724900
-0.435240 0.449768 -0.400100 0.744200 0.722500
0.487162 0.449617 -0.400083 0.744200 0.973200
-0.426147 0.495161 -0.494936 0.504800 0.994700
0.485726 0.494902 -0.494919 0.504900 0.746800
-0.435238 0.449834 -0.494740 0.517200 0.997100
-0.435238 0.449834 -0.494740 0.699100 0.749300
0.485724 0.494836 -0.399947 0.731800 0.972800
0.485726 0.494902 -0.494919 0.025900 0.501400
0.487164 0.449683 -0.494723 0.517200 0.746400
-0.456899 0.495161 0.403722 0.137700 0.749300
-0.456901 0.495095 0.498695 0.111800 0.749300
0.454973 0.494836 0.498710 0.111800 0.501400
0.456412 0.449684 0.403934 0.517200 0.498600
0.456410 0.449618 0.498574 0.543000 0.498600
-0.465992 0.449769 0.498558 0.543000 0.749300
-0.456901 0.495095 0.498695 0.661100 0.703800
-0.465992 0.449769 0.498558 0.673400 0.701300
0.456410 0.449618 0.498574 0.673400 0.952100
-0.456899 0.495161 0.403722 0.414200 0.994700
0.454974 0.494902 0.403738 0.414200 0.746800
-0.465991 0.449835 0.403917 0.426500 0.997100
-0.465991 0.449835 0.403917 0.517200 0.749300
0.454973 0.494836 0.498710 0.661100 0.951700
0.454974 0.494902 0.403738 0.137700 0.501400
0.456412 0.449684 0.403934 0.426500 0.746400
-0.460553 -0.487701 0.009305 0.892900 0.574800
-0.461990 -0.442483 0.009500 0.905200 0.574400
0.460413 -0.442632 0.009518 0.905200 0.825100
-0.460555 -0.487635 0.129280 0.699100 0.250700
-0.460553 -0.487701 0.009305 0.731800 0.250700
0.451321 -0.487959 0.009322 0.731800 0.498600
-0.460555 -0.487635 0.129280 0.243800 0.996700
0.451319 -0.487893 0.129299 0.243800 0.748900
-0.461992 -0.442416 0.129144 0.256200 0.997100
0.460413 -0.442632 0.009518 0.666400 0.501400
-0.461990 -0.442483 0.009500 0.666400 0.250700
0.460410 -0.442566 0.129161 0.699100 0.501400
0.451321 -0.487959 0.009322 0.892900 0.822700
0.460410 -0.442566 0.129161 0.256200 0.746400
-0.461992 -0.442416 0.129144 0.699100 0.250700
0.451319 -0.487893 0.129299 0.699100 0.498600
0.451319 -0.487959 0.138248 0.517200 0.746400
0.451317 -0.487893 0.258224 0.484500 0.746400
-0.460557 -0.487635 0.258206 0.484500 0.498600
-0.461992 -0.442483 0.138425 0.666100 0.000000
-0.461995 -0.442416 0.258070 0.698700 0.000000
0.460408 -0.442567 0.258086 0.698700 0.250700
0.451317 -0.487893 0.258224 0.930000 0.576900
0.460408 -0.442567 0.258086 0.942300 0.574400
-0.461995 -0.442416 0.258070 0.942300 0.825100
0.451319 -0.487959 0.138248 0.442500 0.746800
-0.460555 -0.487701 0.138230 0.442600 0.499000
0.460410 -0.442632 0.138443 0.454900 0.749300
0.460410 -0.442632 0.138443 0.666100 0.250700
-0.460557 -0.487635 0.258206 0.930000 0.824700
-0.460555 -0.487701 0.138230 0.517200 0.498600
-0.461992 -0.442483 0.138425 0.454900 0.498600
-0.426147 -0.451719 -0.494935 0.037200 0.501400
-0.426149 -0.451785 -0.399963 0.063200 0.501400
0.485724 -0.452043 -0.399947 0.063200 0.749300
0.487164 -0.497195 -0.494723 0.323600 0.749300
0.487162 -0.497261 -0.400083 0.297800 0.749300
-0.435240 -0.497110 -0.400100 0.297800 0.498600
-0.426149 -0.451785 -0.399963 0.038300 0.751800
-0.435240 -0.497110 -0.400100 0.050700 0.749300
0.487162 -0.497261 -0.400083 0.050700 1.000000
-0.426147 -0.451719 -0.494935 0.111800 0.997500
0.485726 -0.451977 -0.494919 0.111800 0.749700
-0.435239 -0.497044 -0.494740 0.124200 1.000000
-0.435239 -0.497044 -0.494740 0.323600 0.498600
0.485724 -0.452043 -0.399947 0.038300 0.999600
0.485726 -0.451977 -0.494919 0.037200 0.749300
0.487164 -0.497195 -0.494723 0.124200 0.749300
-0.456899 -0.451719 0.403722 0.186200 0.501400
-0.456901 -0.451785 0.498695 0.212100 0.501400
0.454973 -0.452043 0.498711 0.212100 0.749300
0.456412 -0.497195 0.403934 0.335100 0.498600
0.456410 -0.497261 0.498574 0.361000 0.498600
-0.465992 -0.497110 0.498558 0.361000 0.749300
-0.456901 -0.451785 0.498695 0.442500 0.751800
-0.465992 -0.497110 0.498558 0.454900 0.749300
0.456410 -0.497261 0.498574 0.454900 1.000000
-0.456899 -0.451719 0.403722 0.125400 0.997500
0.454974 -0.451977 0.403739 0.125400 0.749700
-0.465991 -0.497044 0.403917 0.137700 1.000000
-0.465991 -0.497044 0.403917 0.335100 0.749300
0.454973 -0.452043 0.498711 0.442600 0.999600
0.454974 -0.451977 0.403739 0.186200 0.749300
0.456412 -0.497195 0.403934 0.137700 0.749300
-0.471374 -0.120124 -0.475332 0.013600 0.749700
-0.426156 -0.119928 -0.476769 0.025900 0.749300
-0.426323 -0.119927 0.445634 0.025900 1.000000
-0.471308 0.016662 -0.475332 0.401800 0.996700
-0.471582 0.016663 0.436542 0.401800 0.748900
-0.426090 0.016526 -0.476769 0.414200 0.997100
-0.426156 -0.119928 -0.476769 0.186200 0.250700
-0.426090 0.016526 -0.476769 0.149000 0.250700
-0.426256 0.016526 0.445634 0.149000 0.000000
-0.471648 -0.120123 0.436542 0.013500 0.997500
-0.471308 0.016662 -0.475332 0.409800 0.250700
-0.471374 -0.120124 -0.475332 0.447100 0.250700
-0.471648 -0.120123 0.436542 0.447100 0.498600
-0.471582 0.016663 0.436542 0.409800 0.498600
-0.426323 -0.119927 0.445634 0.186200 0.000000
-0.426256 0.016526 0.445634 0.414200 0.746400
0.446052 0.016662 -0.486079 0.954700 0.824700
-0.465822 0.016663 -0.486354 0.954700 0.576900
0.447489 0.016526 -0.440861 0.967100 0.825100
0.447489 -0.119928 -0.440927 0.186200 0.000000
0.447489 0.016526 -0.440861 0.223400 0.000000
-0.474914 0.016526 -0.441028 0.223400 0.250700
-0.465822 -0.120124 -0.486420 0.910300 0.248200
0.446051 -0.120124 -0.486145 0.910400 0.000400
-0.474914 -0.119928 -0.441094 0.922700 0.250700
0.447489 -0.119928 -0.440927 0.922700 0.000000
-0.474914 0.016526 -0.441028 0.967100 0.574400
-0.474914 -0.119928 -0.441094 0.186200 0.250700
0.446052 0.016662 -0.486079 0.558800 0.000000
0.446051 -0.120124 -0.486145 0.596100 0.000000
-0.465822 -0.120124 -0.486420 0.596100 0.247900
-0.465822 0.016663 -0.486354 0.558800 0.247900
0.471412 0.016662 0.448788 0.922700 0.250300
0.471686 0.016663 -0.463085 0.922700 0.002500
0.426194 0.016526 0.450225 0.935100 0.250700
0.426260 -0.119927 0.450226 0.372400 0.000000
0.426194 0.016526 0.450225 0.409600 0.000000
0.426361 0.016526 -0.472177 0.409600 0.250700
0.471753 -0.120124 -0.463085 0.430200 0.994700
0.471478 -0.120123 0.448788 0.430200 0.746800
0.426427 -0.119928 -0.472177 0.442500 0.997100
0.426260 -0.119927 0.450226 0.442500 0.746400
0.426361 0.016526 -0.472177 0.935100 0.000000
0.426427 -0.119928 -0.472177 0.372400 0.250700
0.471412 0.016662 0.448788 0.484500 0.250700
0.471478 -0.120123 0.448788 0.521800 0.250700
0.471753 -0.120124 -0.463085 0.521800 0.498600
0.471686 0.016663 -0.463085 0.484500 0.498600
-0.461998 -0.119927 0.440996 0.186200 0.250700
-0.461998 0.016526 0.440930 0.223400 0.250700
0.460405 0.016526 0.441097 0.223400 0.501400
-0.460561 0.016662 0.486148 0.335100 0.250700
-0.460561 -0.120123 0.486214 0.372500 0.250700
0.451313 -0.120123 0.486489 0.372500 0.498600
0.460405 -0.119927 0.441163 0.186200 0.501400
0.451313 0.016663 0.486423 0.389400 0.748900
0.460405 0.016526 0.441097 0.401800 0.746400
-0.461998 0.016526 0.440930 0.401800 0.997100
-0.460561 0.016662 0.486148 0.389500 0.996700
0.451313 -0.120123 0.486489 0.972200 0.248200
-0.460561 -0.120123 0.486214 0.972200 0.000400
0.460405 -0.119927 0.441163 0.984500 0.250700
0.451313 0.016663 0.486423 0.335100 0.498600
-0.461998 -0.119927 0.440996 0.984500 0.000000
-0.471374 0.026514 -0.475332 0.050800 0.749700
-0.426156 0.026710 -0.476769 0.063200 0.749300
-0.426323 0.026711 0.445634 0.063200 1.000000
-0.471308 0.163300 -0.475332 0.676000 0.951700
-0.471582 0.163301 0.436542 0.676000 0.703800
-0.426090 0.163164 -0.476769 0.688400 0.952100
-0.426156 0.026710 -0.476769 0.111700 0.250700
-0.426090 0.163164 -0.476769 0.074500 0.250700
-0.426256 0.163164 0.445634 0.074500 0.000000
-0.471648 0.026514 0.436541 0.050800 0.997500
-0.471308 0.163300 -0.475332 0.521800 0.250700
-0.471374 0.026514 -0.475332 0.559100 0.250700
-0.471648 0.026514 0.436541 0.559100 0.498600
-0.471582 0.163301 0.436542 0.521800 0.498600
-0.426323 0.026711 0.445634 0.111700 0.000000
-0.426256 0.163164 0.445634 0.688400 0.701300
0.446051 0.163300 -0.486079 0.938200 0.501000
-0.465822 0.163301 -0.486354 0.938200 0.253200
0.447489 0.163164 -0.440861 0.950500 0.501400
0.447489 0.026710 -0.440927 0.260700 0.000000
0.447489 0.163164 -0.440861 0.297900 0.000000
-0.474914 0.163164 -0.441028 0.297900 0.250700
-0.465822 0.026514 -0.486420 0.905200 0.822700
0.446051 0.026514 -0.486145 0.905300 0.574800
-0.474914 0.026710 -0.441094 0.917600 0.825100
0.447489 0.026710 -0.440927 0.917600 0.574400
-0.474914 0.163164 -0.441028 0.950500 0.250700
-0.474914 0.026710 -0.441094 0.260700 0.250700
0.446051 0.163300 -0.486079 0.559100 0.250700
0.446051 0.026514 -0.486145 0.596400 0.250700
-0.465822 0.026514 -0.486420 0.596400 0.498600
-0.465822 0.163301 -0.486354 0.559100 0.498600
0.471412 0.163300 0.448788 0.962900 0.501000
0.471686 0.163301 -0.463085 0.962900 0.253200
0.426194 0.163164 0.450225 0.975300 0.501400
0.426260 0.026711 0.450226 0.335100 0.250700
0.426194 0.163164 0.450225 0.297900 0.250700
0.426361 0.163164 -0.472177 0.297900 0.000000
0.471752 0.026514 -0.463085 0.275700 0.983500
0.471478 0.026514 0.448788 0.275700 0.735600
0.426427 0.026710 -0.472177 0.288100 0.985900
0.426260 0.026711 0.450226 0.288100 0.735200
0.426361 0.163164 -0.472177 0.975300 0.250700
0.426427 0.026710 -0.472177 0.335100 0.000000
0.471412 0.163300 0.448788 0.521400 0.000000
0.471478 0.026514 0.448788 0.558800 0.000000
0.471752 0.026514 -0.463085 0.558800 0.247900
0.471686 0.163301 -0.463085 0.521400 0.247900
-0.461998 0.026711 0.440996 0.000000 0.250700
-0.461998 0.163164 0.440930 0.037200 0.250700
0.460405 0.163164 0.441097 0.037200 0.501400
-0.460561 0.163300 0.486149 0.297800 0.250700
-0.460561 0.026514 0.486215 0.335100 0.250700
0.451313 0.026515 0.486489 0.335100 0.498600
0.460405 0.026711 0.441163 0.000000 0.501400
0.451313 0.163301 0.486423 0.260800 0.737700
0.460405 0.163164 0.441097 0.273100 0.735200
-0.461998 0.163164 0.440930 0.273100 0.985900
-0.460561 0.163300 0.486149 0.260800 0.985500
0.451313 0.026515 0.486489 0.223400 0.994700
-0.460561 0.026514 0.486215 0.223500 0.746800
0.460405 0.026711 0.441163 0.235800 0.997100
0.451313 0.163301 0.486423 0.297800 0.498600
-0.461998 0.026711 0.440996 0.235800 0.746400
0.451326 -0.487959 -0.248528 0.409800 0.746400
0.451324 -0.487892 -0.128552 0.377100 0.746400
-0.460550 -0.487635 -0.128570 0.377100 0.498600
-0.461985 -0.442482 -0.248350 0.144500 0.501400
-0.461988 -0.442416 -0.128706 0.111800 0.501400
0.460415 -0.442566 -0.128690 0.111800 0.250700
0.451324 -0.487892 -0.128552 0.987600 0.253200
0.460415 -0.442566 -0.128690 1.000000 0.250700
-0.461988 -0.442416 -0.128706 1.000000 0.501400
0.451326 -0.487959 -0.248528 0.546700 0.746800
-0.460548 -0.487701 -0.248545 0.546800 0.499000
0.460417 -0.442633 -0.248333 0.559100 0.749300
0.460417 -0.442633 -0.248333 0.144500 0.250700
-0.460550 -0.487635 -0.128570 0.987700 0.501000
-0.460548 -0.487701 -0.248545 0.409800 0.498600
-0.461985 -0.442482 -0.248350 0.559100 0.498600
0.451328 -0.487959 -0.377453 0.442500 0.746400
0.451326 -0.487893 -0.257477 0.409800 0.746400
-0.460548 -0.487635 -0.257495 0.409800 0.498600
-0.461983 -0.442482 -0.377275 0.666400 0.501400
-0.461985 -0.442416 -0.257631 0.633800 0.501400
0.460417 -0.442567 -0.257615 0.633800 0.250700
0.451326 -0.487893 -0.257477 0.746700 0.724900
0.460417 -0.442567 -0.257615 0.759100 0.722500
-0.461985 -0.442416 -0.257631 0.759100 0.973200
0.451328 -0.487959 -0.377453 0.898000 0.248200
-0.460546 -0.487701 -0.377471 0.898000 0.000400
0.460420 -0.442632 -0.377258 0.910300 0.250700
0.460420 -0.442632 -0.377258 0.666400 0.250700
-0.460548 -0.487635 -0.257495 0.746800 0.972800
-0.460546 -0.487701 -0.377471 0.442500 0.498600
-0.461983 -0.442482 -0.377275 0.910300 0.000000
-0.471374 0.175166 -0.475332 0.000000 0.749700
-0.426156 0.175362 -0.476769 0.012400 0.749300
-0.426323 0.175362 0.445634 0.012400 1.000000
-0.471308 0.311952 -0.475332 0.648700 0.985500
-0.471582 0.311953 0.436541 0.648700 0.737700
-0.426090 0.311816 -0.476769 0.661100 0.985900
-0.426156 0.175362 -0.476769 0.000000 0.000000
-0.426090 0.311816 -0.476769 0.037200 0.000000
-0.426256 0.311816 0.445634 0.037200 0.250700
-0.471648 0.175167 0.436542 0.000000 0.997500
-0.471308 0.311952 -0.475332 0.223400 0.250700
-0.471374 0.175166 -0.475332 0.260800 0.250700
-0.471648 0.175167 0.436542 0.260800 0.498600
-0.471582 0.311953 0.436541 0.223400 0.498600
-0.426323 0.175362 0.445634 0.000000 0.250700
-0.426256 0.311816 0.445634 0.661100 0.735200
0.446052 0.311952 -0.486079 0.950600 0.501000
-0.465822 0.311953 -0.486354 0.950500 0.253200
0.447489 0.311816 -0.440861 0.962900 0.501400
0.447489 0.175362 -0.440927 0.223400 0.000000
0.447489 0.311816 -0.440861 0.260700 0.000000
-0.474914 0.311816 -0.441028 0.260700 0.250700
-0.465822 0.175166 -0.486420 0.633800 0.983500
0.446052 0.175166 -0.486145 0.633800 0.735600
-0.474914 0.175362 -0.441094 0.646100 0.985900
0.447489 0.175362 -0.440927 0.646100 0.735200
-0.474914 0.311816 -0.441028 0.962900 0.250700
-0.474914 0.175362 -0.441094 0.223400 0.250700
0.446052 0.311952 -0.486079 0.633800 0.498600
0.446052 0.175166 -0.486145 0.596400 0.498600
-0.465822 0.175166 -0.486420 0.596400 0.250700
-0.465822 0.311953 -0.486354 0.633800 0.250700
0.471412 0.311952 0.448788 0.484500 0.996700
0.471686 0.311953 -0.463085 0.484500 0.748900
0.426194 0.311816 0.450225 0.496800 0.997100
0.426260 0.175363 0.450226 0.409600 0.000000
0.426194 0.311816 0.450225 0.446900 0.000000
0.426361 0.311816 -0.472177 0.446900 0.250700
0.471753 0.175166 -0.463085 0.925800 0.499000
0.471478 0.175166 0.448788 0.925800 0.251100
0.426427 0.175362 -0.472177 0.938200 0.501400
0.426260 0.175363 0.450226 0.938200 0.250700
0.426361 0.311816 -0.472177 0.496800 0.746400
0.426427 0.175362 -0.472177 0.409600 0.250700
0.471412 0.311952 0.448788 0.484100 0.000000
0.471478 0.175166 0.448788 0.521400 0.000000
0.471753 0.175166 -0.463085 0.521400 0.247900
0.471686 0.311953 -0.463085 0.484100 0.247900
-0.461998 0.175362 0.440996 0.037200 0.250700
-0.461998 0.311816 0.440930 0.074500 0.250700
0.460405 0.311816 0.441097 0.074500 0.501400
-0.460561 0.311952 0.486148 0.111800 0.498600
-0.460561 0.175167 0.486214 0.074500 0.498600
0.451313 0.175166 0.486489 0.074500 0.250700
0.460405 0.175363 0.441163 0.037200 0.501400
0.451313 0.311953 0.486423 0.377100 0.748900
0.460405 0.311816 0.441097 0.389400 0.746400
-0.461998 0.311816 0.440930 0.389400 0.997100
-0.460561 0.311952 0.486148 0.377100 0.996700
0.451313 0.175166 0.486489 0.935100 0.248200
-0.460561 0.175167 0.486214 0.935100 0.000400
0.460405 0.175363 0.441163 0.947400 0.250700
0.451313 0.311953 0.486423 0.111800 0.250700
-0.461998 0.175362 0.440996 0.947400 0.000000
-0.460561 0.325372 0.486214 0.967100 0.574800
-0.461998 0.325569 0.440996 0.979400 0.574400
0.460405 0.325569 0.441163 0.979400 0.825100
-0.460561 0.462158 0.486148 0.186200 0.498600
-0.460561 0.325372 0.486214 0.148900 0.498600
0.451313 0.325372 0.486489 0.148900 0.250700
-0.460561 0.462158 0.486148 0.917600 0.824700
0.451313 0.462159 0.486423 0.917600 0.576900
-0.461998 0.462022 0.440930 0.930000 0.825100
0.460405 0.325569 0.441163 0.446900 0.250700
-0.461998 0.325569 0.440996 0.446900 0.000000
0.460405 0.462022 0.441097 0.484100 0.250700
0.451313 0.325372 0.486489 0.967100 0.822700
0.460405 0.462022 0.441097 0.930000 0.574400
-0.461998 0.462022 0.440930 0.484100 0.000000
0.451313 0.462159 0.486423 0.186200 0.250700
0.471753 0.325372 -0.463085 0.633400 0.247900
0.471686 0.462159 -0.463085 0.596100 0.247900
0.471412 0.462158 0.448788 0.596100 0.000000
0.426260 0.325568 0.450225 0.335100 0.000000
0.426194 0.462022 0.450225 0.372400 0.000000
0.426360 0.462022 -0.472177 0.372400 0.250700
0.471686 0.462159 -0.463085 0.942300 0.576900
0.426360 0.462022 -0.472177 0.954700 0.574400
0.426194 0.462022 0.450225 0.954700 0.825100
0.471753 0.325372 -0.463085 0.913400 0.499000
0.471478 0.325372 0.448788 0.913400 0.251100
0.426427 0.325568 -0.472177 0.925800 0.501400
0.426427 0.325568 -0.472177 0.335100 0.250700
0.471412 0.462158 0.448788 0.942400 0.824700
0.471478 0.325372 0.448788 0.633400 0.000000
0.426260 0.325568 0.450225 0.925800 0.250700
-0.465822 0.325372 -0.486420 0.409800 0.498600
-0.465822 0.462159 -0.486354 0.372500 0.498600
0.446052 0.462158 -0.486079 0.372500 0.250700
0.447489 0.325568 -0.440927 0.037200 0.000000
0.447489 0.462022 -0.440860 0.074500 0.000000
-0.474914 0.462022 -0.441028 0.074500 0.250700
-0.465822 0.462159 -0.486354 0.947400 0.002500
-0.474914 0.462022 -0.441028 0.959800 0.000000
0.447489 0.462022 -0.440860 0.959800 0.250700
-0.465822 0.325372 -0.486420 0.959800 0.248200
0.446051 0.325372 -0.486145 0.959800 0.000400
-0.474914 0.325568 -0.441094 0.972200 0.250700
-0.474914 0.325568 -0.441094 0.037200 0.250700
0.446052 0.462158 -0.486079 0.947500 0.250300
0.446051 0.325372 -0.486145 0.409800 0.250700
0.447489 0.325568 -0.440927 0.972200 0.000000
-0.471648 0.325372 0.436541 0.447100 0.250700
-0.471582 0.462159 0.436541 0.484500 0.250700
-0.471308 0.462158 -0.475332 0.484500 0.498600
-0.426156 0.325568 -0.476769 0.149000 0.250700
-0.426090 0.462022 -0.476769 0.111700 0.250700
-0.426256 0.462022 0.445634 0.111700 0.000000
-0.471582 0.462159 0.436541 0.979400 0.576900
-0.426256 0.462022 0.445634 0.991800 0.574400
-0.426090 0.462022 -0.476769 0.991800 0.825100
-0.471648 0.325372 0.436541 0.025900 0.997500
-0.471374 0.325372 -0.475332 0.025900 0.749700
-0.426323 0.325568 0.445634 0.038300 1.000000
-0.426323 0.325568 0.445634 0.149000 0.000000
-0.471308 0.462158 -0.475332 0.979500 0.824700
-0.471374 0.325372 -0.475332 0.447100 0.498600
-0.426156 0.325568 -0.476769 0.038300 0.749300
3 0 1 2
3 3 4 5
3 6 7 8
3 9 10 11
3 12 13 14
3 15 16 17
3 18 6 8
3 19 9 11
3 20 12 14
3 5 21 22
3 23 5 22
3 5 23 3
3 24 25 26
3 27 28 29
3 30 31 32
3 33 34 35
3 36 37 38
3 39 40 41
3 42 30 32
3 43 33 35
3 44 36 38
3 29 45 46
3 47 29 46
3 29 47 27
3 48 49 50
3 51 52 53
3 54 55 56
3 57 58 59
3 60 51 53
3 61 62 63
3 58 64 59
3 65 66 41
3 49 67 50
3 68 69 70
3 63 71 61
3 55 72 56
3 73 74 75
3 74 76 75
3 2 77 0
3 78 79 80
3 81 82 83
3 82 84 83
3 79 85 80
3 86 87 88
3 89 90 91
3 69 92 70
3 91 93 89
3 87 94 88
3 95 96 97
3 98 39 41
3 16 99 17
3 40 65 41
3 100 101 102
3 103 24 26
3 104 105 106
3 101 107 102
3 108 109 110
3 111 112 113
3 105 114 106
3 115 116 117
3 97 118 95
3 119 115 117
3 120 121 122
3 123 120 122
3 124 125 126
3 110 127 108
3 128 129 130
3 131 132 133
3 129 134 130
3 135 131 133
3 136 124 126
3 112 137 113
3 138 139 140
3 141 142 143
3 144 145 146
3 147 148 149
3 150 141 143
3 151 144 146
3 140 152 138
3 148 153 149
3 154 155 156
3 157 158 159
3 160 161 162
3 163 164 165
3 166 154 156
3 161 167 162
3 164 168 165
3 159 169 157
3 170 171 172
3 173 174 175
3 176 177 178
3 179 180 181
3 182 170 172
3 177 183 178
3 180 184 181
3 175 185 173
3 186 187 188
3 189 190 191
3 192 193 194
3 195 186 188
3 196 197 198
3 198 199 196
3 200 192 194
3 190 201 191
3 202 203 204
3 205 206 70
3 206 68 70
3 203 207 204
3 208 209 210
3 211 212 213
3 213 214 211
3 209 215 210
3 216 217 218
3 219 220 221
3 222 223 224
3 223 225 224
3 217 226 218
3 227 219 221
3 228 229 230
3 230 231 228
3 232 233 234
3 235 236 237
3 238 239 240
3 241 242 243
3 244 235 237
3 245 238 240
3 234 246 232
3 242 247 243
3 248 249 250
3 251 252 253
3 254 255 256
3 255 257 256
3 249 258 250
3 259 251 253
3 260 261 262
3 262 263 260
3 264 265 266
3 267 268 269
3 270 271 272
3 273 274 275
3 276 267 269
3 277 270 272
3 266 278 264
3 274 279 275
3 280 281 282
3 283 284 285
3 286 280 282
3 287 288 289
3 290 287 289
3 291 292 293
3 285 294 283
3 292 295 293
3 296 297 298
3 299 300 301
3 302 303 304
3 305 306 307
3 308 299 301
3 309 302 304
3 298 310 296
3 306 311 307
3 312 313 314
3 315 316 317
3 318 319 320
3 321 322 323
3 324 315 317
3 325 318 320
3 314 326 312
3 322 327 323
3 328 329 330
3 331 332 333
3 334 335 336
3 337 338 339
3 340 331 333
3 341 334 336
3 330 342 328
3 338 343 339
3 344 345 346
3 347 348 349
3 350 351 352
3 353 354 355
3 356 344 346
3 351 357 352
3 354 358 355
3 349 359 347
3 360 361 362
3 363 364 365
3 366 367 368
3 369 370 371
3 372 363 365
3 373 366 368
3 362 374 360
3 370 375 371
3 376 377 378
3 379 380 381
3 382 383 384
3 385 386 387
3 388 379 381
3 389 382 384
3 378 390 376
3 386 391 387
3 392 393 394
3 395 396 397
3 398 399 400
3 401 402 403
3 404 395 397
3 405 398 400
3 394 406 392
3 402 407 403
3 408 409 410
3 411 412 413
3 414 415 416
3 417 408 410
3 418 419 420
3 420 421 418
3 422 414 416
3 412 423 413
3 424 425 426
3 427 428 429
3 430 431 432
3 431 433 432
3 425 434 426
3 435 427 429
3 436 437 438
3 438 439 436
3 440 441 442
3 443 444 445
3 446 447 448
3 447 449 448
3 441 450 442
3 451 443 445
3 452 453 454
3 454 455 452
3 456 457 458
3 459 460 461
3 462 456 458
3 463 464 465
3 466 463 465
3 467 468 469
3 461 470 459
3 468 471 469
3 472 473 474
3 475 476 477
3 478 479 480
3 481 472 474
3 482 483 484
3 484 485 482
3 486 478 480
3 476 487 477
3 488 489 490
3 491 492 493
3 494 495 496
3 495 497 496
3 489 498 490
3 499 491 493
3 500 501 502
3 502 503 500
3 504 505 506
3 507 508 509
3 510 511 512
3 511 513 512
3 505 514 506
3 515 507 509
3 516 517 518
3 518 519 516
3 520 521 522
3 523 524 525
3 526 520 522
3 527 528 529
3 530 527 529
3 531 532 533
3 525 534 523
3 532 535 533
3 536 537 538
3 539 540 541
3 542 543 544
3 545 546 547
3 548 539 541
3 549 542 544
3 538 550 536
3 546 551 547
3 552 553 554
3 555 556 557
3 558 559 560
3 561 562 563
3 564 555 557
3 565 558 560
3 554 566 552
3 562 567 563
3 568 569 570
3 571 572 573
3 574 575 576
3 577 568 570
3 578 579 580
3 580 581 578
3 582 574 576
3 572 583 573
3 584 585 586
3 587 588 589
3 590 591 592
3 591 593 592
3 585 594 586
3 595 587 589
3 596 597 598
3 598 599 596
3 600 601 602
3 603 604 605
3 606 607 608
3 607 609 608
3 601 610 602
3 611 603 605
3 612 613 614
3 614 615 612
3 616 617 618
3 619 620 621
3 622 616 618
3 623 624 625
3 626 623 625
3 627 628 629
3 621 630 619
3 628 631 629
3 632 633 634
3 635 636 637
3 638 639 640
3 641 642 643
3 644 632 634
3 639 645 640
3 642 646 643
3 637 647 635
3 648 649 650
3 651 652 653
3 654 655 656
3 657 658 659
3 660 651 653
3 661 654 656
3 650 662 648
3 658 663 659
3 664 665 666
3 667 668 669
3 670 671 672
3 673 674 675
3 676 667 669
3 677 670 672
3 666 678 664
3 674 679 675
3 680 681 682
3 683 684 685
3 686 687 688
3 689 690 691
3 692 683 685
3 693 686 688
3 682 694 680
3 690 695 691
